<svg width="20" height="13" viewBox="0 0 20 13" version="1.1" xmlns="http://www.w3.org/2000/svg" xmlns:xlink="http://www.w3.org/1999/xlink">
<title>ic_eye</title>
<desc>Created using Figma</desc>
<g id="Canvas" transform="translate(-538 102)">
<g id="ic_eye">
<g id="ic_eye">
<use xlink:href="#path0_fill" transform="translate(538 -102)" fill="#34B6FF"/>
</g>
</g>
</g>
<defs>
<path id="path0_fill" fill-rule="evenodd" d="M 1.93662 7.35102C 4.61215 0.216326 15.3884 0.216326 18.0639 7.35102C 18.2578 7.86814 18.8343 8.13013 19.3514 7.93622C 19.8685 7.7423 20.1305 7.16588 19.9366 6.64876C 16.6122 -2.21625 3.3884 -2.21626 0.0639373 6.64876C -0.129971 7.16588 0.132022 7.7423 0.649142 7.93622C 1.16626 8.13013 1.74268 7.86814 1.93662 7.35102ZM 10.0003 13C 12.2094 13 14.0003 11.2092 14.0003 9.00003C 14.0003 6.7909 12.2094 5.00003 10.0003 5.00003C 7.79114 5.00003 6.00028 6.7909 6.00028 9.00003C 6.00028 11.2092 7.79114 13 10.0003 13Z"/>
</defs>
</svg>
