<svg width="183" height="183" viewBox="0 0 183 183" version="1.1" xmlns="http://www.w3.org/2000/svg" xmlns:xlink="http://www.w3.org/1999/xlink">
<title>ic_empty_user</title>
<desc>Created using Figma</desc>
<g id="Canvas" transform="translate(1534 51)">
<g id="ic_empty_user">
<g id="Ellipse 2">
<mask id="mask0_outline_ins">
<use xlink:href="#path0_fill" fill="white" transform="translate(-1534 -51)"/>
</mask>
<g mask="url(#mask0_outline_ins)">
<use xlink:href="#path1_stroke_2x" transform="translate(-1534 -51)" fill="#979797"/>
</g>
</g>
<g id="Mask Group">
<mask id="mask1_alpha" mask-type="alpha">
<g id="Ellipse 2.1">
<use xlink:href="#path0_fill" transform="translate(-1534 -51)" fill="#FF7A7A"/>
</g>
</mask>
<g id="Group" mask="url(#mask1_alpha)">
<g id="Ellipse">
<mask id="mask2_outline_ins">
<use xlink:href="#path2_fill" fill="white" transform="translate(-1480.74 -21)"/>
</mask>
<g mask="url(#mask2_outline_ins)">
<use xlink:href="#path3_stroke_2x" transform="translate(-1480.74 -21)" fill="#979797"/>
</g>
</g>
<g id="Vector">
<use xlink:href="#path4_stroke" transform="translate(-1502 64.3334)" fill="#979797"/>
</g>
</g>
</g>
</g>
</g>
<defs>
<path id="path0_fill" d="M 183 91.5C 183 142.034 142.034 183 91.5 183C 40.9659 183 0 142.034 0 91.5C 0 40.9659 40.9659 0 91.5 0C 142.034 0 183 40.9659 183 91.5Z"/>
<path id="path1_stroke_2x" d="M 183.977 89.418C 183.965 88.8659 183.507 88.4281 182.955 88.4403C 182.403 88.4525 181.965 88.91 181.978 89.4622L 183.977 89.418ZM 181.641 83.3807C 181.69 83.9308 182.175 84.3371 182.725 84.2882C 183.276 84.2393 183.682 83.7537 183.633 83.2036L 181.641 83.3807ZM 183.173 79.0772C 183.099 78.5298 182.596 78.1457 182.049 78.2192C 181.501 78.2926 181.117 78.796 181.191 79.3433L 183.173 79.0772ZM 180.178 73.3406C 180.288 73.8818 180.816 74.2311 181.357 74.1209C 181.898 74.0107 182.248 73.4826 182.138 72.9414L 180.178 73.3406ZM 181.217 68.8915C 181.082 68.3559 180.539 68.0308 180.003 68.1653C 179.468 68.2999 179.143 68.8432 179.277 69.3788L 181.217 68.8915ZM 177.593 63.5239C 177.764 64.0492 178.328 64.3367 178.853 64.1662C 179.379 63.9956 179.666 63.4315 179.496 62.9062L 177.593 63.5239ZM 178.125 58.988C 177.93 58.471 177.354 58.2092 176.837 58.4034C 176.32 58.5975 176.058 59.174 176.252 59.6911L 178.125 58.988ZM 173.918 54.0634C 174.147 54.5661 174.74 54.7882 175.243 54.5595C 175.746 54.3308 175.968 53.7379 175.739 53.2352L 173.918 54.0634ZM 173.935 49.4961C 173.684 49.0042 173.081 48.8091 172.59 49.0602C 172.098 49.3113 171.903 49.9136 172.154 50.4055L 173.935 49.4961ZM 169.203 45.0772C 169.486 45.5511 170.1 45.7052 170.574 45.4215C 171.048 45.1378 171.202 44.5237 170.919 44.0498L 169.203 45.0772ZM 168.707 40.5366C 168.402 40.076 167.781 39.9495 167.321 40.2542C 166.86 40.5589 166.734 41.1793 167.038 41.6399L 168.707 40.5366ZM 163.509 36.6745C 163.844 37.1136 164.471 37.1982 164.911 36.8633C 165.35 36.5284 165.434 35.9009 165.099 35.4617L 163.509 36.6745ZM 162.509 32.2178C 162.155 31.7941 161.524 31.7376 161.1 32.0918C 160.677 32.446 160.62 33.0766 160.974 33.5004L 162.509 32.2178ZM 156.913 28.9589C 157.295 29.3581 157.928 29.3722 158.327 28.9905C 158.726 28.6088 158.74 27.9758 158.359 27.5766L 156.913 28.9589ZM 155.423 24.6414C 155.024 24.2596 154.391 24.2738 154.01 24.6729C 153.628 25.072 153.642 25.705 154.041 26.0868L 155.423 24.6414ZM 149.5 22.0255C 149.923 22.3797 150.554 22.3233 150.908 21.8995C 151.262 21.4757 151.206 20.8451 150.782 20.4909L 149.5 22.0255ZM 147.538 17.9007C 147.099 17.5658 146.472 17.6503 146.137 18.0895C 145.802 18.5287 145.886 19.1561 146.326 19.491L 147.538 17.9007ZM 141.36 15.9616C 141.821 16.2663 142.441 16.1399 142.746 15.6792C 143.05 15.2186 142.924 14.5982 142.463 14.2935L 141.36 15.9616ZM 138.95 12.0814C 138.476 11.7977 137.862 11.9518 137.578 12.4257C 137.295 12.8995 137.449 13.5136 137.923 13.7973L 138.95 12.0814ZM 132.594 10.8463C 133.086 11.0974 133.689 10.9023 133.94 10.4104C 134.191 9.91849 133.996 9.31616 133.504 9.06503L 132.594 10.8463ZM 129.765 7.26109C 129.262 7.03237 128.669 7.25449 128.44 7.75719C 128.212 8.2599 128.434 8.85282 128.937 9.08153L 129.765 7.26109ZM 123.309 6.74783C 123.826 6.94197 124.402 6.68022 124.597 6.16318C 124.791 5.64615 124.529 5.06962 124.012 4.87548L 123.309 6.74783ZM 120.094 3.50446C 119.569 3.33389 119.004 3.62144 118.834 4.14672C 118.663 4.67201 118.951 5.23611 119.476 5.40668L 120.094 3.50446ZM 113.621 3.72278C 114.157 3.85734 114.7 3.53219 114.835 2.99655C 114.969 2.46091 114.644 1.9176 114.108 1.78305L 113.621 3.72278ZM 110.059 0.862444C 109.517 0.752218 108.989 1.10157 108.879 1.64274C 108.769 2.18392 109.118 2.71198 109.659 2.82221L 110.059 0.862444ZM 103.657 1.80935C 104.204 1.88283 104.707 1.49867 104.781 0.951294C 104.854 0.403919 104.47 -0.0993841 103.923 -0.172866L 103.657 1.80935ZM 99.7964 -0.632936C 99.2463 -0.681842 98.7607 -0.275531 98.7118 0.274584C 98.6629 0.824699 99.0692 1.3103 99.6193 1.35921L 99.7964 -0.632936ZM 93.5378 1.02249C 94.09 1.03468 94.5475 0.596963 94.5597 0.0448131C 94.5719 -0.507337 94.1341 -0.96483 93.582 -0.977026L 93.5378 1.02249ZM 89.418 -0.977026C 88.8659 -0.96483 88.4281 -0.507337 88.4403 0.0448132C 88.4525 0.596963 88.91 1.03468 89.4622 1.02249L 89.418 -0.977026ZM 83.3807 1.35921C 83.9308 1.3103 84.3371 0.824699 84.2882 0.274584C 84.2393 -0.275531 83.7537 -0.681841 83.2036 -0.632936L 83.3807 1.35921ZM 79.0772 -0.172864C 78.5298 -0.0993828 78.1457 0.40392 78.2192 0.951295C 78.2926 1.49867 78.796 1.88284 79.3433 1.80935L 79.0772 -0.172864ZM 73.3406 2.82221C 73.8818 2.71198 74.2311 2.18392 74.1209 1.64275C 74.0107 1.10157 73.4826 0.75222 72.9414 0.862446L 73.3406 2.82221ZM 68.8915 1.78305C 68.3559 1.91761 68.0308 2.46091 68.1653 2.99655C 68.2999 3.5322 68.8432 3.85734 69.3788 3.72278L 68.8915 1.78305ZM 63.5239 5.40668C 64.0492 5.23611 64.3367 4.67201 64.1662 4.14672C 63.9956 3.62144 63.4315 3.33389 62.9062 3.50446L 63.5239 5.40668ZM 58.988 4.87548C 58.471 5.06962 58.2092 5.64615 58.4034 6.16319C 58.5975 6.68022 59.174 6.94198 59.6911 6.74783L 58.988 4.87548ZM 54.0634 9.08154C 54.5661 8.85283 54.7882 8.2599 54.5595 7.75719C 54.3308 7.25449 53.7379 7.03238 53.2352 7.26109L 54.0634 9.08154ZM 49.4961 9.06503C 49.0042 9.31616 48.8091 9.9185 49.0602 10.4104C 49.3113 10.9023 49.9136 11.0974 50.4055 10.8463L 49.4961 9.06503ZM 45.0772 13.7973C 45.5511 13.5136 45.7052 12.8995 45.4215 12.4257C 45.1378 11.9518 44.5237 11.7977 44.0498 12.0814L 45.0772 13.7973ZM 40.5366 14.2935C 40.076 14.5982 39.9495 15.2186 40.2542 15.6792C 40.5589 16.1399 41.1793 16.2663 41.6399 15.9616L 40.5366 14.2935ZM 36.6745 19.491C 37.1136 19.1562 37.1982 18.5287 36.8633 18.0895C 36.5284 17.6503 35.9009 17.5658 35.4617 17.9007L 36.6745 19.491ZM 32.2178 20.4909C 31.7941 20.8451 31.7376 21.4757 32.0918 21.8995C 32.446 22.3233 33.0766 22.3797 33.5004 22.0255L 32.2178 20.4909ZM 28.9589 26.0868C 29.3581 25.705 29.3722 25.072 28.9905 24.6729C 28.6088 24.2738 27.9758 24.2596 27.5766 24.6414L 28.9589 26.0868ZM 24.6414 27.5766C 24.2596 27.9758 24.2738 28.6088 24.6729 28.9905C 25.072 29.3722 25.705 29.3581 26.0868 28.959L 24.6414 27.5766ZM 22.0255 33.5004C 22.3797 33.0766 22.3233 32.446 21.8995 32.0918C 21.4757 31.7376 20.8451 31.7941 20.4909 32.2178L 22.0255 33.5004ZM 17.9007 35.4617C 17.5658 35.9009 17.6503 36.5284 18.0895 36.8633C 18.5287 37.1982 19.1561 37.1136 19.491 36.6745L 17.9007 35.4617ZM 15.9616 41.6399C 16.2663 41.1793 16.1399 40.5589 15.6792 40.2542C 15.2186 39.9495 14.5982 40.076 14.2935 40.5366L 15.9616 41.6399ZM 12.0814 44.0499C 11.7977 44.5237 11.9518 45.1378 12.4257 45.4215C 12.8995 45.7052 13.5136 45.5511 13.7973 45.0773L 12.0814 44.0499ZM 10.8463 50.4055C 11.0974 49.9137 10.9023 49.3113 10.4104 49.0602C 9.91849 48.8091 9.31616 49.0042 9.06503 49.4961L 10.8463 50.4055ZM 7.26109 53.2352C 7.03237 53.7379 7.25449 54.3308 7.75719 54.5595C 8.2599 54.7882 8.85282 54.5661 9.08153 54.0634L 7.26109 53.2352ZM 6.74783 59.6911C 6.94197 59.174 6.68022 58.5975 6.16318 58.4034C 5.64615 58.2092 5.06962 58.471 4.87548 58.988L 6.74783 59.6911ZM 3.50446 62.9062C 3.33389 63.4315 3.62144 63.9956 4.14672 64.1662C 4.67201 64.3367 5.23611 64.0492 5.40668 63.5239L 3.50446 62.9062ZM 3.72278 69.3788C 3.85734 68.8432 3.53219 68.2999 2.99655 68.1653C 2.46091 68.0308 1.9176 68.3559 1.78305 68.8916L 3.72278 69.3788ZM 0.862444 72.9414C 0.752218 73.4826 1.10157 74.0107 1.64274 74.1209C 2.18392 74.2311 2.71198 73.8818 2.82221 73.3406L 0.862444 72.9414ZM 1.80935 79.3433C 1.88283 78.796 1.49867 78.2927 0.951294 78.2192C 0.403919 78.1457 -0.0993841 78.5299 -0.172866 79.0772L 1.80935 79.3433ZM -0.632936 83.2036C -0.681842 83.7537 -0.275531 84.2393 0.274584 84.2882C 0.824699 84.3371 1.3103 83.9308 1.35921 83.3807L -0.632936 83.2036ZM 1.02249 89.4622C 1.03468 88.91 0.596963 88.4525 0.0448131 88.4403C -0.507337 88.4281 -0.96483 88.8659 -0.977026 89.418L 1.02249 89.4622ZM -0.977026 93.582C -0.96483 94.1341 -0.507337 94.5719 0.0448132 94.5597C 0.596963 94.5475 1.03468 94.09 1.02249 93.5378L -0.977026 93.582ZM 1.35921 99.6193C 1.3103 99.0692 0.824699 98.6629 0.274584 98.7118C -0.275531 98.7607 -0.681841 99.2463 -0.632936 99.7964L 1.35921 99.6193ZM -0.172864 103.923C -0.0993828 104.47 0.40392 104.854 0.951295 104.781C 1.49867 104.707 1.88284 104.204 1.80935 103.657L -0.172864 103.923ZM 2.82221 109.659C 2.71198 109.118 2.18392 108.769 1.64275 108.879C 1.10157 108.989 0.75222 109.517 0.862446 110.059L 2.82221 109.659ZM 1.78305 114.108C 1.91761 114.644 2.46091 114.969 2.99655 114.835C 3.5322 114.7 3.85734 114.157 3.72278 113.621L 1.78305 114.108ZM 5.40668 119.476C 5.23611 118.951 4.67201 118.663 4.14672 118.834C 3.62144 119.004 3.33389 119.569 3.50446 120.094L 5.40668 119.476ZM 4.87548 124.012C 5.06962 124.529 5.64615 124.791 6.16319 124.597C 6.68022 124.403 6.94198 123.826 6.74783 123.309L 4.87548 124.012ZM 9.08154 128.937C 8.85283 128.434 8.2599 128.212 7.75719 128.441C 7.25449 128.669 7.03238 129.262 7.26109 129.765L 9.08154 128.937ZM 9.06503 133.504C 9.31616 133.996 9.9185 134.191 10.4104 133.94C 10.9023 133.689 11.0974 133.086 10.8463 132.594L 9.06503 133.504ZM 13.7973 137.923C 13.5136 137.449 12.8995 137.295 12.4257 137.578C 11.9518 137.862 11.7977 138.476 12.0814 138.95L 13.7973 137.923ZM 14.2935 142.463C 14.5982 142.924 15.2186 143.05 15.6792 142.746C 16.1399 142.441 16.2663 141.821 15.9616 141.36L 14.2935 142.463ZM 19.491 146.326C 19.1562 145.886 18.5287 145.802 18.0895 146.137C 17.6503 146.472 17.5658 147.099 17.9007 147.538L 19.491 146.326ZM 20.4909 150.782C 20.8451 151.206 21.4757 151.262 21.8995 150.908C 22.3233 150.554 22.3797 149.923 22.0255 149.5L 20.4909 150.782ZM 26.0868 154.041C 25.705 153.642 25.072 153.628 24.6729 154.01C 24.2738 154.391 24.2596 155.024 24.6414 155.423L 26.0868 154.041ZM 27.5766 158.359C 27.9758 158.74 28.6088 158.726 28.9905 158.327C 29.3722 157.928 29.3581 157.295 28.959 156.913L 27.5766 158.359ZM 33.5004 160.974C 33.0766 160.62 32.446 160.677 32.0918 161.1C 31.7376 161.524 31.7941 162.155 32.2178 162.509L 33.5004 160.974ZM 35.4617 165.099C 35.9009 165.434 36.5284 165.35 36.8633 164.911C 37.1982 164.471 37.1136 163.844 36.6745 163.509L 35.4617 165.099ZM 41.6399 167.038C 41.1793 166.734 40.5589 166.86 40.2542 167.321C 39.9495 167.781 40.076 168.402 40.5366 168.707L 41.6399 167.038ZM 44.0499 170.919C 44.5237 171.202 45.1378 171.048 45.4215 170.574C 45.7052 170.1 45.5511 169.486 45.0773 169.203L 44.0499 170.919ZM 50.4055 172.154C 49.9137 171.903 49.3113 172.098 49.0602 172.59C 48.8091 173.082 49.0042 173.684 49.4961 173.935L 50.4055 172.154ZM 53.2352 175.739C 53.7379 175.968 54.3308 175.746 54.5595 175.243C 54.7882 174.74 54.5661 174.147 54.0634 173.918L 53.2352 175.739ZM 59.6911 176.252C 59.174 176.058 58.5975 176.32 58.4034 176.837C 58.2092 177.354 58.471 177.93 58.988 178.125L 59.6911 176.252ZM 62.9062 179.496C 63.4315 179.666 63.9956 179.379 64.1662 178.853C 64.3367 178.328 64.0492 177.764 63.5239 177.593L 62.9062 179.496ZM 69.3788 179.277C 68.8432 179.143 68.2999 179.468 68.1653 180.003C 68.0308 180.539 68.3559 181.082 68.8916 181.217L 69.3788 179.277ZM 72.9414 182.138C 73.4826 182.248 74.0107 181.898 74.1209 181.357C 74.2311 180.816 73.8818 180.288 73.3406 180.178L 72.9414 182.138ZM 79.3433 181.191C 78.796 181.117 78.2927 181.501 78.2192 182.049C 78.1457 182.596 78.5299 183.099 79.0772 183.173L 79.3433 181.191ZM 83.2036 183.633C 83.7537 183.682 84.2393 183.276 84.2882 182.725C 84.3371 182.175 83.9308 181.69 83.3807 181.641L 83.2036 183.633ZM 89.4622 181.978C 88.91 181.965 88.4525 182.403 88.4403 182.955C 88.4281 183.507 88.8659 183.965 89.418 183.977L 89.4622 181.978ZM 93.582 183.977C 94.1341 183.965 94.5719 183.507 94.5597 182.955C 94.5475 182.403 94.09 181.965 93.5378 181.978L 93.582 183.977ZM 99.6193 181.641C 99.0692 181.69 98.6629 182.175 98.7118 182.725C 98.7607 183.276 99.2463 183.682 99.7964 183.633L 99.6193 181.641ZM 103.923 183.173C 104.47 183.099 104.854 182.596 104.781 182.049C 104.707 181.501 104.204 181.117 103.657 181.191L 103.923 183.173ZM 109.659 180.178C 109.118 180.288 108.769 180.816 108.879 181.357C 108.989 181.898 109.517 182.248 110.059 182.138L 109.659 180.178ZM 114.108 181.217C 114.644 181.082 114.969 180.539 114.835 180.003C 114.7 179.468 114.157 179.143 113.621 179.277L 114.108 181.217ZM 119.476 177.593C 118.951 177.764 118.663 178.328 118.834 178.853C 119.004 179.379 119.569 179.666 120.094 179.496L 119.476 177.593ZM 124.012 178.125C 124.529 177.93 124.791 177.354 124.597 176.837C 124.403 176.32 123.826 176.058 123.309 176.252L 124.012 178.125ZM 128.937 173.918C 128.434 174.147 128.212 174.74 128.441 175.243C 128.669 175.746 129.262 175.968 129.765 175.739L 128.937 173.918ZM 133.504 173.935C 133.996 173.684 134.191 173.081 133.94 172.59C 133.689 172.098 133.086 171.903 132.594 172.154L 133.504 173.935ZM 137.923 169.203C 137.449 169.486 137.295 170.1 137.578 170.574C 137.862 171.048 138.476 171.202 138.95 170.919L 137.923 169.203ZM 142.463 168.707C 142.924 168.402 143.05 167.781 142.746 167.321C 142.441 166.86 141.821 166.734 141.36 167.038L 142.463 168.707ZM 146.326 163.509C 145.886 163.844 145.802 164.471 146.137 164.911C 146.472 165.35 147.099 165.434 147.538 165.099L 146.326 163.509ZM 150.782 162.509C 151.206 162.155 151.262 161.524 150.908 161.1C 150.554 160.677 149.923 160.62 149.5 160.974L 150.782 162.509ZM 154.041 156.913C 153.642 157.295 153.628 157.928 154.01 158.327C 154.391 158.726 155.024 158.74 155.423 158.359L 154.041 156.913ZM 158.359 155.423C 158.74 155.024 158.726 154.391 158.327 154.01C 157.928 153.628 157.295 153.642 156.913 154.041L 158.359 155.423ZM 160.974 149.5C 160.62 149.923 160.677 150.554 161.1 150.908C 161.524 151.262 162.155 151.206 162.509 150.782L 160.974 149.5ZM 165.099 147.538C 165.434 147.099 165.35 146.472 164.911 146.137C 164.471 145.802 163.844 145.886 163.509 146.326L 165.099 147.538ZM 167.038 141.36C 166.734 141.821 166.86 142.441 167.321 142.746C 167.781 143.05 168.402 142.924 168.707 142.463L 167.038 141.36ZM 170.919 138.95C 171.202 138.476 171.048 137.862 170.574 137.578C 170.1 137.295 169.486 137.449 169.203 137.923L 170.919 138.95ZM 172.154 132.594C 171.903 133.086 172.098 133.689 172.59 133.94C 173.082 134.191 173.684 133.996 173.935 133.504L 172.154 132.594ZM 175.739 129.765C 175.968 129.262 175.746 128.669 175.243 128.44C 174.74 128.212 174.147 128.434 173.918 128.937L 175.739 129.765ZM 176.252 123.309C 176.058 123.826 176.32 124.402 176.837 124.597C 177.354 124.791 177.93 124.529 178.125 124.012L 176.252 123.309ZM 179.496 120.094C 179.666 119.569 179.379 119.004 178.853 118.834C 178.328 118.663 177.764 118.951 177.593 119.476L 179.496 120.094ZM 179.277 113.621C 179.143 114.157 179.468 114.7 180.003 114.835C 180.539 114.969 181.082 114.644 181.217 114.108L 179.277 113.621ZM 182.138 110.059C 182.248 109.517 181.898 108.989 181.357 108.879C 180.816 108.769 180.288 109.118 180.178 109.659L 182.138 110.059ZM 181.191 103.657C 181.117 104.204 181.501 104.707 182.049 104.781C 182.596 104.854 183.099 104.47 183.173 103.923L 181.191 103.657ZM 183.633 99.7964C 183.682 99.2463 183.276 98.7607 182.725 98.7118C 182.175 98.6629 181.69 99.0692 181.641 99.6193L 183.633 99.7964ZM 181.978 93.5378C 181.965 94.09 182.403 94.5475 182.955 94.5597C 183.507 94.5719 183.965 94.1341 183.977 93.582L 181.978 93.5378ZM 184 91.5C 184 90.806 183.992 90.1083 183.977 89.418L 181.978 89.4622C 181.993 90.1415 182 90.8171 182 91.5L 184 91.5ZM 183.633 83.2036C 183.51 81.8229 183.356 80.4398 183.173 79.0772L 181.191 79.3433C 181.371 80.6838 181.52 82.0224 181.641 83.3807L 183.633 83.2036ZM 182.138 72.9414C 181.861 71.5841 181.552 70.2265 181.217 68.8915L 179.277 69.3788C 179.607 70.692 179.906 72.0054 180.178 73.3406L 182.138 72.9414ZM 179.496 62.9062C 179.068 61.5905 178.608 60.277 178.125 58.988L 176.252 59.6911C 176.728 60.959 177.173 62.2297 177.593 63.5239L 179.496 62.9062ZM 175.739 53.2352C 175.166 51.9768 174.562 50.7234 173.935 49.4961L 172.154 50.4055C 172.77 51.6128 173.355 52.8256 173.918 54.0634L 175.739 53.2352ZM 170.919 44.0498C 170.209 42.8644 169.467 41.6868 168.707 40.5366L 167.038 41.6399C 167.787 42.7714 168.504 43.9111 169.203 45.0772L 170.919 44.0498ZM 165.099 35.4617C 164.262 34.3638 163.394 33.2764 162.509 32.2178L 160.974 33.5004C 161.845 34.5417 162.685 35.5942 163.509 36.6745L 165.099 35.4617ZM 158.359 27.5766C 157.405 26.5792 156.421 25.5953 155.423 24.6414L 154.041 26.0868C 155.022 27.0252 155.975 27.9776 156.913 28.9589L 158.359 27.5766ZM 150.782 20.4909C 149.724 19.6063 148.636 18.738 147.538 17.9007L 146.326 19.491C 147.406 20.3147 148.458 21.1552 149.5 22.0255L 150.782 20.4909ZM 142.463 14.2935C 141.313 13.5328 140.136 12.7912 138.95 12.0814L 137.923 13.7973C 139.089 14.4955 140.229 15.2132 141.36 15.9616L 142.463 14.2935ZM 133.504 9.06503C 132.277 8.43849 131.023 7.83365 129.765 7.26109L 128.937 9.08153C 130.174 9.64461 131.387 10.2299 132.594 10.8463L 133.504 9.06503ZM 124.012 4.87548C 122.723 4.39152 121.41 3.93177 120.094 3.50446L 119.476 5.40668C 120.77 5.82685 122.041 6.27166 123.309 6.74783L 124.012 4.87548ZM 114.108 1.78305C 112.773 1.44775 111.416 1.13898 110.059 0.862444L 109.659 2.82221C 110.995 3.09408 112.308 3.39283 113.621 3.72278L 114.108 1.78305ZM 103.923 -0.172866C 102.56 -0.355716 101.177 -0.510124 99.7964 -0.632936L 99.6193 1.35921C 100.978 1.4799 102.316 1.62934 103.657 1.80935L 103.923 -0.172866ZM 93.582 -0.977026C 92.8917 -0.99226 92.194 -0.999985 91.5 -1L 91.5 1C 92.1829 0.999985 92.8585 1.00747 93.5378 1.02249L 93.582 -0.977026ZM 91.5 -1C 90.806 -0.999985 90.1083 -0.99226 89.418 -0.977026L 89.4622 1.02249C 90.1415 1.00747 90.8171 0.999985 91.5 1L 91.5 -1ZM 83.2036 -0.632936C 81.8229 -0.510124 80.4398 -0.355715 79.0772 -0.172864L 79.3433 1.80935C 80.6838 1.62934 82.0224 1.4799 83.3807 1.35921L 83.2036 -0.632936ZM 72.9414 0.862446C 71.5841 1.13898 70.2265 1.44775 68.8915 1.78305L 69.3788 3.72278C 70.692 3.39284 72.0054 3.09408 73.3406 2.82221L 72.9414 0.862446ZM 62.9062 3.50446C 61.5905 3.93178 60.277 4.39152 58.988 4.87548L 59.6911 6.74783C 60.959 6.27166 62.2297 5.82686 63.5239 5.40668L 62.9062 3.50446ZM 53.2352 7.26109C 51.9768 7.83366 50.7234 8.43849 49.4961 9.06503L 50.4055 10.8463C 51.6128 10.2299 52.8256 9.64461 54.0634 9.08154L 53.2352 7.26109ZM 44.0498 12.0814C 42.8644 12.7912 41.6868 13.5328 40.5366 14.2935L 41.6399 15.9616C 42.7714 15.2132 43.9111 14.4955 45.0772 13.7973L 44.0498 12.0814ZM 35.4617 17.9007C 34.3638 18.738 33.2764 19.6063 32.2178 20.4909L 33.5004 22.0255C 34.5417 21.1552 35.5942 20.3147 36.6745 19.491L 35.4617 17.9007ZM 27.5766 24.6414C 26.5792 25.5953 25.5953 26.5792 24.6414 27.5766L 26.0868 28.959C 27.0252 27.9776 27.9776 27.0252 28.9589 26.0868L 27.5766 24.6414ZM 20.4909 32.2178C 19.6063 33.2764 18.738 34.3638 17.9007 35.4617L 19.491 36.6745C 20.3147 35.5942 21.1552 34.5417 22.0255 33.5004L 20.4909 32.2178ZM 14.2935 40.5366C 13.5328 41.6868 12.7912 42.8644 12.0814 44.0499L 13.7973 45.0773C 14.4955 43.9111 15.2132 42.7714 15.9616 41.6399L 14.2935 40.5366ZM 9.06503 49.4961C 8.43849 50.7234 7.83365 51.9768 7.26109 53.2352L 9.08153 54.0634C 9.64461 52.8256 10.2299 51.6128 10.8463 50.4055L 9.06503 49.4961ZM 4.87548 58.988C 4.39152 60.277 3.93177 61.5905 3.50446 62.9062L 5.40668 63.5239C 5.82685 62.2297 6.27166 60.959 6.74783 59.6911L 4.87548 58.988ZM 1.78305 68.8916C 1.44775 70.2265 1.13898 71.5841 0.862444 72.9414L 2.82221 73.3406C 3.09408 72.0055 3.39283 70.692 3.72278 69.3788L 1.78305 68.8916ZM -0.172866 79.0772C -0.355716 80.4398 -0.510124 81.8229 -0.632936 83.2036L 1.35921 83.3807C 1.4799 82.0224 1.62934 80.6838 1.80935 79.3433L -0.172866 79.0772ZM -0.977026 89.418C -0.99226 90.1083 -0.999985 90.806 -1 91.5L 1 91.5C 0.999985 90.8171 1.00747 90.1415 1.02249 89.4622L -0.977026 89.418ZM -1 91.5C -0.999985 92.194 -0.99226 92.8917 -0.977026 93.582L 1.02249 93.5378C 1.00747 92.8585 0.999985 92.1829 1 91.5L -1 91.5ZM -0.632936 99.7964C -0.510124 101.177 -0.355715 102.56 -0.172864 103.923L 1.80935 103.657C 1.62934 102.316 1.4799 100.978 1.35921 99.6193L -0.632936 99.7964ZM 0.862446 110.059C 1.13898 111.416 1.44775 112.773 1.78305 114.108L 3.72278 113.621C 3.39284 112.308 3.09408 110.995 2.82221 109.659L 0.862446 110.059ZM 3.50446 120.094C 3.93178 121.41 4.39152 122.723 4.87548 124.012L 6.74783 123.309C 6.27166 122.041 5.82686 120.77 5.40668 119.476L 3.50446 120.094ZM 7.26109 129.765C 7.83366 131.023 8.43849 132.277 9.06503 133.504L 10.8463 132.594C 10.2299 131.387 9.64461 130.174 9.08154 128.937L 7.26109 129.765ZM 12.0814 138.95C 12.7912 140.136 13.5328 141.313 14.2935 142.463L 15.9616 141.36C 15.2132 140.229 14.4955 139.089 13.7973 137.923L 12.0814 138.95ZM 17.9007 147.538C 18.738 148.636 19.6063 149.724 20.4909 150.782L 22.0255 149.5C 21.1552 148.458 20.3147 147.406 19.491 146.326L 17.9007 147.538ZM 24.6414 155.423C 25.5953 156.421 26.5792 157.405 27.5766 158.359L 28.959 156.913C 27.9776 155.975 27.0252 155.022 26.0868 154.041L 24.6414 155.423ZM 32.2178 162.509C 33.2764 163.394 34.3638 164.262 35.4617 165.099L 36.6745 163.509C 35.5942 162.685 34.5417 161.845 33.5004 160.974L 32.2178 162.509ZM 40.5366 168.707C 41.6868 169.467 42.8644 170.209 44.0499 170.919L 45.0773 169.203C 43.9111 168.504 42.7714 167.787 41.6399 167.038L 40.5366 168.707ZM 49.4961 173.935C 50.7234 174.562 51.9768 175.166 53.2352 175.739L 54.0634 173.918C 52.8256 173.355 51.6128 172.77 50.4055 172.154L 49.4961 173.935ZM 58.988 178.125C 60.277 178.608 61.5905 179.068 62.9062 179.496L 63.5239 177.593C 62.2297 177.173 60.959 176.728 59.6911 176.252L 58.988 178.125ZM 68.8916 181.217C 70.2265 181.552 71.5841 181.861 72.9414 182.138L 73.3406 180.178C 72.0055 179.906 70.692 179.607 69.3788 179.277L 68.8916 181.217ZM 79.0772 183.173C 80.4398 183.356 81.8229 183.51 83.2036 183.633L 83.3807 181.641C 82.0224 181.52 80.6838 181.371 79.3433 181.191L 79.0772 183.173ZM 89.418 183.977C 90.1083 183.992 90.806 184 91.5 184L 91.5 182C 90.8171 182 90.1415 181.993 89.4622 181.978L 89.418 183.977ZM 91.5 184C 92.194 184 92.8917 183.992 93.582 183.977L 93.5378 181.978C 92.8585 181.993 92.1829 182 91.5 182L 91.5 184ZM 99.7964 183.633C 101.177 183.51 102.56 183.356 103.923 183.173L 103.657 181.191C 102.316 181.371 100.978 181.52 99.6193 181.641L 99.7964 183.633ZM 110.059 182.138C 111.416 181.861 112.773 181.552 114.108 181.217L 113.621 179.277C 112.308 179.607 110.995 179.906 109.659 180.178L 110.059 182.138ZM 120.094 179.496C 121.41 179.068 122.723 178.608 124.012 178.125L 123.309 176.252C 122.041 176.728 120.77 177.173 119.476 177.593L 120.094 179.496ZM 129.765 175.739C 131.023 175.166 132.277 174.562 133.504 173.935L 132.594 172.154C 131.387 172.77 130.174 173.355 128.937 173.918L 129.765 175.739ZM 138.95 170.919C 140.136 170.209 141.313 169.467 142.463 168.707L 141.36 167.038C 140.229 167.787 139.089 168.504 137.923 169.203L 138.95 170.919ZM 147.538 165.099C 148.636 164.262 149.724 163.394 150.782 162.509L 149.5 160.974C 148.458 161.845 147.406 162.685 146.326 163.509L 147.538 165.099ZM 155.423 158.359C 156.421 157.405 157.405 156.421 158.359 155.423L 156.913 154.041C 155.975 155.022 155.022 155.975 154.041 156.913L 155.423 158.359ZM 162.509 150.782C 163.394 149.724 164.262 148.636 165.099 147.538L 163.509 146.326C 162.685 147.406 161.845 148.458 160.974 149.5L 162.509 150.782ZM 168.707 142.463C 169.467 141.313 170.209 140.136 170.919 138.95L 169.203 137.923C 168.504 139.089 167.787 140.229 167.038 141.36L 168.707 142.463ZM 173.935 133.504C 174.562 132.277 175.166 131.023 175.739 129.765L 173.918 128.937C 173.355 130.174 172.77 131.387 172.154 132.594L 173.935 133.504ZM 178.125 124.012C 178.608 122.723 179.068 121.41 179.496 120.094L 177.593 119.476C 177.173 120.77 176.728 122.041 176.252 123.309L 178.125 124.012ZM 181.217 114.108C 181.552 112.773 181.861 111.416 182.138 110.059L 180.178 109.659C 179.906 110.995 179.607 112.308 179.277 113.621L 181.217 114.108ZM 183.173 103.923C 183.356 102.56 183.51 101.177 183.633 99.7964L 181.641 99.6193C 181.52 100.978 181.371 102.316 181.191 103.657L 183.173 103.923ZM 183.977 93.582C 183.992 92.8917 184 92.194 184 91.5L 182 91.5C 182 92.1829 181.993 92.8585 181.978 93.5378L 183.977 93.582ZM 184.977 89.3959C 184.952 88.2916 184.037 87.4162 182.933 87.4406C 181.829 87.465 180.953 88.38 180.978 89.4843L 184.977 89.3959ZM 180.645 83.4693C 180.743 84.5695 181.714 85.3821 182.814 85.2843C 183.914 85.1865 184.727 84.2153 184.629 83.1151L 180.645 83.4693ZM 184.164 78.9442C 184.017 77.8494 183.01 77.0811 181.916 77.2281C 180.821 77.375 180.053 78.3816 180.2 79.4764L 184.164 78.9442ZM 179.198 73.5402C 179.418 74.6225 180.474 75.3212 181.557 75.1008C 182.639 74.8803 183.338 73.8242 183.117 72.7418L 179.198 73.5402ZM 182.187 68.6479C 181.918 67.5766 180.831 66.9263 179.76 67.1955C 178.689 67.4646 178.038 68.5512 178.307 69.6225L 182.187 68.6479ZM 176.642 63.8327C 176.983 64.8833 178.112 65.4584 179.162 65.1173C 180.213 64.7761 180.788 63.6479 180.447 62.5973L 176.642 63.8327ZM 179.061 58.6365C 178.672 57.6024 177.519 57.0789 176.485 57.4672C 175.451 57.8555 174.928 59.0085 175.316 60.0426L 179.061 58.6365ZM 173.008 54.4775C 173.466 55.4829 174.652 55.9271 175.657 55.4697C 176.662 55.0123 177.107 53.8264 176.649 52.821L 173.008 54.4775ZM 174.826 49.0414C 174.323 48.0576 173.119 47.6673 172.135 48.1695C 171.151 48.6718 170.761 49.8765 171.263 50.8602L 174.826 49.0414ZM 168.345 45.5909C 168.912 46.5386 170.14 46.8469 171.088 46.2795C 172.036 45.7121 172.344 44.4838 171.777 43.5361L 168.345 45.5909ZM 169.541 39.9849C 168.931 39.0637 167.69 38.8108 166.769 39.4201C 165.848 40.0295 165.595 41.2703 166.204 42.1916L 169.541 39.9849ZM 162.714 37.2808C 163.384 38.1592 164.639 38.3282 165.517 37.6585C 166.395 36.9887 166.564 35.7337 165.895 34.8554L 162.714 37.2808ZM 163.276 31.5766C 162.568 30.729 161.307 30.6162 160.459 31.3245C 159.612 32.0328 159.499 33.2941 160.207 34.1417L 163.276 31.5766ZM 156.191 29.6501C 156.954 30.4484 158.22 30.4766 159.018 29.7132C 159.817 28.9497 159.845 27.6837 159.081 26.8855L 156.191 29.6501ZM 156.115 23.9187C 155.316 23.1552 154.05 23.1835 153.287 23.9817C 152.523 24.78 152.552 26.046 153.35 26.8095L 156.115 23.9187ZM 148.858 22.7929C 149.706 23.5012 150.967 23.3883 151.676 22.5408C 152.384 21.6932 152.271 20.4319 151.423 19.7236L 148.858 22.7929ZM 148.145 17.1055C 147.266 16.4357 146.011 16.6048 145.342 17.4831C 144.672 18.3615 144.841 19.6164 145.719 20.2862L 148.145 17.1055ZM 140.808 16.7957C 141.73 17.405 142.971 17.1522 143.58 16.2309C 144.189 15.3096 143.936 14.0688 143.015 13.4594L 140.808 16.7957ZM 139.464 11.2234C 138.516 10.656 137.288 10.9643 136.721 11.912C 136.153 12.8597 136.461 14.0879 137.409 14.6553L 139.464 11.2234ZM 132.14 11.7369C 133.124 12.2392 134.328 11.8489 134.83 10.8651C 135.333 9.88132 134.942 8.67665 133.959 8.17439L 132.14 11.7369ZM 130.179 6.35086C 129.174 5.89344 127.988 6.33767 127.53 7.34308C 127.073 8.34848 127.517 9.53434 128.522 9.99176L 130.179 6.35086ZM 122.957 7.68401C 123.991 8.0723 125.145 7.54879 125.533 6.51471C 125.921 5.48064 125.398 4.32759 124.364 3.9393L 122.957 7.68401ZM 120.403 2.55335C 119.352 2.2122 118.224 2.7873 117.883 3.83787C 117.542 4.88844 118.117 6.01665 119.167 6.35779L 120.403 2.55335ZM 113.378 4.69264C 114.449 4.96176 115.535 4.31148 115.805 3.24019C 116.074 2.16891 115.423 1.0823 114.352 0.81318L 113.378 4.69264ZM 110.258 -0.117438C 109.176 -0.337888 108.12 0.360817 107.899 1.44316C 107.679 2.52551 108.377 3.58164 109.46 3.80209L 110.258 -0.117438ZM 103.524 2.80046C 104.618 2.94743 105.625 2.17909 105.772 1.08434C 105.919 -0.0104057 105.151 -1.01701 104.056 -1.16397L 103.524 2.80046ZM 99.8849 -1.62901C 98.7847 -1.72682 97.8135 -0.914198 97.7157 0.186032C 97.6179 1.28626 98.4305 2.25747 99.5307 2.35528L 99.8849 -1.62901ZM 93.5157 2.02224C 94.62 2.04663 95.535 1.1712 95.5594 0.0668966C 95.5838 -1.0374 94.7084 -1.95239 93.6041 -1.97678L 93.5157 2.02224ZM 89.3959 -1.97678C 88.2916 -1.95239 87.4162 -1.0374 87.4406 0.0668967C 87.465 1.1712 88.38 2.04663 89.4843 2.02224L 89.3959 -1.97678ZM 83.4693 2.35528C 84.5695 2.25747 85.3821 1.28626 85.2843 0.186033C 85.1865 -0.914198 84.2153 -1.72682 83.1151 -1.62901L 83.4693 2.35528ZM 78.9442 -1.16397C 77.8494 -1.01701 77.0811 -0.0104042 77.2281 1.08434C 77.375 2.17909 78.3816 2.94743 79.4764 2.80046L 78.9442 -1.16397ZM 73.5402 3.80209C 74.6225 3.58164 75.3212 2.52551 75.1008 1.44317C 74.8803 0.360819 73.8242 -0.337886 72.7418 -0.117436L 73.5402 3.80209ZM 68.6479 0.813181C 67.5766 1.0823 66.9263 2.16891 67.1955 3.2402C 67.4646 4.31148 68.5512 4.96176 69.6225 4.69264L 68.6479 0.813181ZM 63.8327 6.35779C 64.8833 6.01665 65.4584 4.88845 65.1173 3.83788C 64.7761 2.78731 63.6479 2.21221 62.5973 2.55335L 63.8327 6.35779ZM 58.6365 3.9393C 57.6024 4.32759 57.0789 5.48064 57.4672 6.51472C 57.8555 7.54879 59.0085 8.0723 60.0426 7.68401L 58.6365 3.9393ZM 54.4775 9.99176C 55.4829 9.53434 55.9271 8.34848 55.4697 7.34308C 55.0123 6.33767 53.8264 5.89344 52.821 6.35086L 54.4775 9.99176ZM 49.0414 8.17439C 48.0576 8.67665 47.6673 9.88132 48.1695 10.8651C 48.6718 11.8489 49.8765 12.2392 50.8602 11.7369L 49.0414 8.17439ZM 45.5909 14.6553C 46.5386 14.0879 46.8469 12.8597 46.2795 11.912C 45.7121 10.9643 44.4838 10.656 43.5361 11.2234L 45.5909 14.6553ZM 39.9849 13.4594C 39.0637 14.0688 38.8108 15.3096 39.4201 16.2309C 40.0295 17.1522 41.2703 17.405 42.1916 16.7957L 39.9849 13.4594ZM 37.2808 20.2862C 38.1592 19.6164 38.3282 18.3615 37.6585 17.4831C 36.9887 16.6048 35.7337 16.4357 34.8554 17.1055L 37.2808 20.2862ZM 31.5766 19.7236C 30.729 20.4319 30.6162 21.6932 31.3245 22.5408C 32.0328 23.3883 33.2941 23.5012 34.1417 22.7929L 31.5766 19.7236ZM 29.6501 26.8095C 30.4484 26.046 30.4766 24.78 29.7132 23.9817C 28.9497 23.1835 27.6837 23.1552 26.8855 23.9187L 29.6501 26.8095ZM 23.9187 26.8855C 23.1552 27.6837 23.1835 28.9498 23.9817 29.7132C 24.78 30.4766 26.046 30.4484 26.8095 29.6501L 23.9187 26.8855ZM 22.7929 34.1417C 23.5012 33.2941 23.3883 32.0328 22.5408 31.3245C 21.6932 30.6162 20.4319 30.729 19.7236 31.5766L 22.7929 34.1417ZM 17.1055 34.8554C 16.4357 35.7337 16.6048 36.9887 17.4831 37.6585C 18.3615 38.3282 19.6164 38.1592 20.2862 37.2808L 17.1055 34.8554ZM 16.7957 42.1916C 17.405 41.2703 17.1522 40.0295 16.2309 39.4201C 15.3096 38.8108 14.0688 39.0637 13.4594 39.9849L 16.7957 42.1916ZM 11.2234 43.5361C 10.656 44.4838 10.9643 45.7121 11.912 46.2795C 12.8597 46.8469 14.0879 46.5386 14.6553 45.591L 11.2234 43.5361ZM 11.7369 50.8603C 12.2392 49.8765 11.8489 48.6718 10.8651 48.1695C 9.88132 47.6673 8.67665 48.0576 8.17439 49.0414L 11.7369 50.8603ZM 6.35086 52.821C 5.89344 53.8265 6.33767 55.0123 7.34308 55.4697C 8.34848 55.9271 9.53434 55.4829 9.99176 54.4775L 6.35086 52.821ZM 7.68401 60.0426C 8.0723 59.0085 7.54879 57.8555 6.51471 57.4672C 5.48064 57.0789 4.32759 57.6024 3.9393 58.6365L 7.68401 60.0426ZM 2.55335 62.5974C 2.2122 63.6479 2.7873 64.7761 3.83787 65.1173C 4.88844 65.4584 6.01665 64.8833 6.35779 63.8327L 2.55335 62.5974ZM 4.69264 69.6225C 4.96176 68.5512 4.31148 67.4646 3.24019 67.1955C 2.16891 66.9263 1.0823 67.5766 0.81318 68.6479L 4.69264 69.6225ZM -0.117438 72.7419C -0.337888 73.8242 0.360817 74.8803 1.44316 75.1008C 2.52551 75.3212 3.58164 74.6225 3.80209 73.5402L -0.117438 72.7419ZM 2.80046 79.4764C 2.94743 78.3816 2.17909 77.375 1.08434 77.2281C -0.0104057 77.0811 -1.01701 77.8494 -1.16397 78.9442L 2.80046 79.4764ZM -1.62901 83.1151C -1.72682 84.2153 -0.914198 85.1865 0.186032 85.2843C 1.28626 85.3821 2.25747 84.5695 2.35528 83.4693L -1.62901 83.1151ZM 2.02224 89.4843C 2.04663 88.38 1.1712 87.465 0.0668966 87.4406C -1.0374 87.4162 -1.95239 88.2916 -1.97678 89.3959L 2.02224 89.4843ZM -1.97678 93.6041C -1.95239 94.7084 -1.0374 95.5838 0.0668967 95.5594C 1.1712 95.535 2.04663 94.62 2.02224 93.5157L -1.97678 93.6041ZM 2.35528 99.5307C 2.25747 98.4305 1.28626 97.6179 0.186033 97.7157C -0.914198 97.8135 -1.72682 98.7847 -1.62901 99.8849L 2.35528 99.5307ZM -1.16397 104.056C -1.01701 105.151 -0.0104042 105.919 1.08434 105.772C 2.17909 105.625 2.94743 104.618 2.80046 103.524L -1.16397 104.056ZM 3.80209 109.46C 3.58164 108.377 2.52551 107.679 1.44317 107.899C 0.360819 108.12 -0.337886 109.176 -0.117436 110.258L 3.80209 109.46ZM 0.813181 114.352C 1.0823 115.423 2.16891 116.074 3.2402 115.805C 4.31148 115.535 4.96176 114.449 4.69264 113.378L 0.813181 114.352ZM 6.35779 119.167C 6.01665 118.117 4.88845 117.542 3.83788 117.883C 2.78731 118.224 2.21221 119.352 2.55335 120.403L 6.35779 119.167ZM 3.9393 124.364C 4.32759 125.398 5.48064 125.921 6.51472 125.533C 7.54879 125.145 8.0723 123.991 7.68401 122.957L 3.9393 124.364ZM 9.99176 128.522C 9.53434 127.517 8.34848 127.073 7.34308 127.53C 6.33767 127.988 5.89344 129.174 6.35086 130.179L 9.99176 128.522ZM 8.17439 133.959C 8.67665 134.942 9.88132 135.333 10.8651 134.83C 11.8489 134.328 12.2392 133.124 11.7369 132.14L 8.17439 133.959ZM 14.6553 137.409C 14.0879 136.461 12.8597 136.153 11.912 136.721C 10.9643 137.288 10.656 138.516 11.2234 139.464L 14.6553 137.409ZM 13.4594 143.015C 14.0688 143.936 15.3096 144.189 16.2309 143.58C 17.1522 142.971 17.405 141.73 16.7957 140.808L 13.4594 143.015ZM 20.2862 145.719C 19.6164 144.841 18.3615 144.672 17.4831 145.342C 16.6048 146.011 16.4357 147.266 17.1055 148.145L 20.2862 145.719ZM 19.7236 151.423C 20.4319 152.271 21.6932 152.384 22.5408 151.676C 23.3883 150.967 23.5012 149.706 22.7929 148.858L 19.7236 151.423ZM 26.8095 153.35C 26.046 152.552 24.78 152.523 23.9817 153.287C 23.1835 154.05 23.1552 155.316 23.9187 156.115L 26.8095 153.35ZM 26.8855 159.081C 27.6837 159.845 28.9498 159.817 29.7132 159.018C 30.4766 158.22 30.4484 156.954 29.6501 156.191L 26.8855 159.081ZM 34.1417 160.207C 33.2941 159.499 32.0328 159.612 31.3245 160.459C 30.6162 161.307 30.729 162.568 31.5766 163.276L 34.1417 160.207ZM 34.8554 165.895C 35.7337 166.564 36.9887 166.395 37.6585 165.517C 38.3282 164.639 38.1592 163.384 37.2808 162.714L 34.8554 165.895ZM 42.1916 166.204C 41.2703 165.595 40.0295 165.848 39.4201 166.769C 38.8108 167.69 39.0637 168.931 39.9849 169.541L 42.1916 166.204ZM 43.5361 171.777C 44.4838 172.344 45.7121 172.036 46.2795 171.088C 46.8469 170.14 46.5386 168.912 45.591 168.345L 43.5361 171.777ZM 50.8603 171.263C 49.8765 170.761 48.6718 171.151 48.1695 172.135C 47.6673 173.119 48.0576 174.323 49.0414 174.826L 50.8603 171.263ZM 52.821 176.649C 53.8265 177.107 55.0123 176.662 55.4697 175.657C 55.9271 174.652 55.4829 173.466 54.4775 173.008L 52.821 176.649ZM 60.0426 175.316C 59.0085 174.928 57.8555 175.451 57.4672 176.485C 57.0789 177.519 57.6024 178.672 58.6365 179.061L 60.0426 175.316ZM 62.5974 180.447C 63.6479 180.788 64.7761 180.213 65.1173 179.162C 65.4584 178.112 64.8833 176.983 63.8327 176.642L 62.5974 180.447ZM 69.6225 178.307C 68.5512 178.038 67.4646 178.689 67.1955 179.76C 66.9263 180.831 67.5766 181.918 68.6479 182.187L 69.6225 178.307ZM 72.7419 183.117C 73.8242 183.338 74.8803 182.639 75.1008 181.557C 75.3212 180.474 74.6225 179.418 73.5402 179.198L 72.7419 183.117ZM 79.4764 180.2C 78.3816 180.053 77.375 180.821 77.2281 181.916C 77.0811 183.01 77.8494 184.017 78.9442 184.164L 79.4764 180.2ZM 83.1151 184.629C 84.2153 184.727 85.1865 183.914 85.2843 182.814C 85.3821 181.714 84.5695 180.743 83.4693 180.645L 83.1151 184.629ZM 89.4843 180.978C 88.38 180.953 87.465 181.829 87.4406 182.933C 87.4162 184.037 88.2916 184.952 89.3959 184.977L 89.4843 180.978ZM 93.6041 184.977C 94.7084 184.952 95.5838 184.037 95.5594 182.933C 95.535 181.829 94.62 180.953 93.5157 180.978L 93.6041 184.977ZM 99.5307 180.645C 98.4305 180.743 97.6179 181.714 97.7157 182.814C 97.8135 183.914 98.7847 184.727 99.8849 184.629L 99.5307 180.645ZM 104.056 184.164C 105.151 184.017 105.919 183.01 105.772 181.916C 105.625 180.821 104.618 180.053 103.524 180.2L 104.056 184.164ZM 109.46 179.198C 108.377 179.418 107.679 180.474 107.899 181.557C 108.12 182.639 109.176 183.338 110.258 183.117L 109.46 179.198ZM 114.352 182.187C 115.423 181.918 116.074 180.831 115.805 179.76C 115.535 178.689 114.449 178.038 113.378 178.307L 114.352 182.187ZM 119.167 176.642C 118.117 176.983 117.542 178.112 117.883 179.162C 118.224 180.213 119.352 180.788 120.403 180.447L 119.167 176.642ZM 124.364 179.061C 125.398 178.672 125.921 177.519 125.533 176.485C 125.145 175.451 123.991 174.928 122.957 175.316L 124.364 179.061ZM 128.522 173.008C 127.517 173.466 127.073 174.652 127.53 175.657C 127.988 176.662 129.174 177.107 130.179 176.649L 128.522 173.008ZM 133.959 174.826C 134.942 174.323 135.333 173.119 134.83 172.135C 134.328 171.151 133.124 170.761 132.14 171.263L 133.959 174.826ZM 137.409 168.345C 136.461 168.912 136.153 170.14 136.721 171.088C 137.288 172.036 138.516 172.344 139.464 171.777L 137.409 168.345ZM 143.015 169.541C 143.936 168.931 144.189 167.69 143.58 166.769C 142.971 165.848 141.73 165.595 140.808 166.204L 143.015 169.541ZM 145.719 162.714C 144.841 163.384 144.672 164.639 145.342 165.517C 146.011 166.395 147.266 166.564 148.145 165.895L 145.719 162.714ZM 151.423 163.276C 152.271 162.568 152.384 161.307 151.676 160.459C 150.967 159.612 149.706 159.499 148.858 160.207L 151.423 163.276ZM 153.35 156.191C 152.552 156.954 152.523 158.22 153.287 159.018C 154.05 159.817 155.316 159.845 156.115 159.081L 153.35 156.191ZM 159.081 156.115C 159.845 155.316 159.817 154.05 159.018 153.287C 158.22 152.523 156.954 152.552 156.191 153.35L 159.081 156.115ZM 160.207 148.858C 159.499 149.706 159.612 150.967 160.459 151.676C 161.307 152.384 162.568 152.271 163.276 151.423L 160.207 148.858ZM 165.895 148.145C 166.564 147.266 166.395 146.011 165.517 145.342C 164.639 144.672 163.384 144.841 162.714 145.719L 165.895 148.145ZM 166.204 140.808C 165.595 141.73 165.848 142.971 166.769 143.58C 167.69 144.189 168.931 143.936 169.541 143.015L 166.204 140.808ZM 171.777 139.464C 172.344 138.516 172.036 137.288 171.088 136.721C 170.14 136.153 168.912 136.461 168.345 137.409L 171.777 139.464ZM 171.263 132.14C 170.761 133.124 171.151 134.328 172.135 134.83C 173.119 135.333 174.323 134.942 174.826 133.959L 171.263 132.14ZM 176.649 130.179C 177.107 129.174 176.662 127.988 175.657 127.53C 174.652 127.073 173.466 127.517 173.008 128.522L 176.649 130.179ZM 175.316 122.957C 174.928 123.991 175.451 125.145 176.485 125.533C 177.519 125.921 178.672 125.398 179.061 124.364L 175.316 122.957ZM 180.447 120.403C 180.788 119.352 180.213 118.224 179.162 117.883C 178.112 117.542 176.983 118.117 176.642 119.167L 180.447 120.403ZM 178.307 113.378C 178.038 114.449 178.689 115.535 179.76 115.805C 180.831 116.074 181.918 115.423 182.187 114.352L 178.307 113.378ZM 183.117 110.258C 183.338 109.176 182.639 108.12 181.557 107.899C 180.474 107.679 179.418 108.377 179.198 109.46L 183.117 110.258ZM 180.2 103.524C 180.053 104.618 180.821 105.625 181.916 105.772C 183.01 105.919 184.017 105.151 184.164 104.056L 180.2 103.524ZM 184.629 99.8849C 184.727 98.7847 183.914 97.8135 182.814 97.7157C 181.714 97.6179 180.743 98.4305 180.645 99.5307L 184.629 99.8849ZM 180.978 93.5157C 180.953 94.62 181.829 95.535 182.933 95.5594C 184.037 95.5838 184.952 94.7084 184.977 93.6041L 180.978 93.5157ZM 185 91.5C 185 90.8005 184.992 90.0917 184.977 89.3959L 180.978 89.4843C 180.993 90.1581 181 90.8226 181 91.5L 185 91.5ZM 184.629 83.1151C 184.505 81.7231 184.348 80.3178 184.164 78.9442L 180.2 79.4764C 180.378 80.8058 180.525 82.1221 180.645 83.4693L 184.629 83.1151ZM 183.117 72.7418C 182.839 71.3734 182.525 69.9938 182.187 68.6479L 178.307 69.6225C 178.635 70.9247 178.928 72.2161 179.198 73.5402L 183.117 72.7418ZM 180.447 62.5973C 180.016 61.2708 179.549 59.9361 179.061 58.6365L 175.316 60.0426C 175.788 61.3 176.226 62.5494 176.642 63.8327L 180.447 62.5973ZM 176.649 52.821C 176.072 51.5524 175.457 50.2788 174.826 49.0414L 171.263 50.8602C 171.874 52.0575 172.45 53.25 173.008 54.4775L 176.649 52.821ZM 171.777 43.5361C 171.061 42.3411 170.307 41.1445 169.541 39.9849L 166.204 42.1916C 166.947 43.3137 167.652 44.4344 168.345 45.5909L 171.777 43.5361ZM 165.895 34.8554C 165.05 33.7485 164.168 32.6437 163.276 31.5766L 160.207 34.1417C 161.07 35.1744 161.897 36.2094 162.714 37.2808L 165.895 34.8554ZM 159.081 26.8855C 158.12 25.8801 157.12 24.8804 156.115 23.9187L 153.35 26.8095C 154.323 27.7401 155.26 28.6768 156.191 29.6501L 159.081 26.8855ZM 151.423 19.7236C 150.356 18.8319 149.251 17.9497 148.145 17.1055L 145.719 20.2862C 146.791 21.1031 147.826 21.9296 148.858 22.7929L 151.423 19.7236ZM 143.015 13.4594C 141.856 12.6927 140.659 11.9391 139.464 11.2234L 137.409 14.6553C 138.566 15.3476 139.686 16.0534 140.808 16.7957L 143.015 13.4594ZM 133.959 8.17439C 132.721 7.5428 131.448 6.92817 130.179 6.35086L 128.522 9.99176C 129.75 10.5501 130.942 11.1255 132.14 11.7369L 133.959 8.17439ZM 124.364 3.9393C 123.064 3.45144 121.729 2.98423 120.403 2.55335L 119.167 6.35779C 120.451 6.7744 121.7 7.21173 122.957 7.68401L 124.364 3.9393ZM 114.352 0.81318C 113.006 0.475209 111.627 0.161426 110.258 -0.117438L 109.46 3.80209C 110.784 4.07163 112.075 4.36538 113.378 4.69264L 114.352 0.81318ZM 104.056 -1.16397C 102.682 -1.34824 101.277 -1.50514 99.8849 -1.62901L 99.5307 2.35528C 100.878 2.47491 102.194 2.62187 103.524 2.80046L 104.056 -1.16397ZM 93.6041 -1.97678C 92.9083 -1.99212 92.1995 -1.99997 91.5 -2L 91.5 2C 92.1774 1.99997 92.8419 2.00733 93.5157 2.02224L 93.6041 -1.97678ZM 91.5 -2C 90.8005 -1.99997 90.0917 -1.99212 89.3959 -1.97678L 89.4843 2.02224C 90.1581 2.00733 90.8226 1.99997 91.5 2L 91.5 -2ZM 83.1151 -1.62901C 81.7231 -1.50514 80.3178 -1.34824 78.9442 -1.16397L 79.4764 2.80046C 80.8058 2.62187 82.1221 2.47491 83.4693 2.35528L 83.1151 -1.62901ZM 72.7418 -0.117436C 71.3734 0.161427 69.9938 0.475211 68.6479 0.813181L 69.6225 4.69264C 70.9247 4.36538 72.2161 4.07163 73.5402 3.80209L 72.7418 -0.117436ZM 62.5973 2.55335C 61.2708 2.98423 59.9361 3.45145 58.6365 3.9393L 60.0426 7.68401C 61.3 7.21173 62.5494 6.7744 63.8327 6.35779L 62.5973 2.55335ZM 52.821 6.35086C 51.5524 6.92818 50.2788 7.5428 49.0414 8.17439L 50.8602 11.7369C 52.0575 11.1255 53.25 10.5501 54.4775 9.99176L 52.821 6.35086ZM 43.5361 11.2234C 42.3411 11.9391 41.1445 12.6927 39.9849 13.4594L 42.1916 16.7957C 43.3137 16.0534 44.4344 15.3477 45.5909 14.6553L 43.5361 11.2234ZM 34.8554 17.1055C 33.7485 17.9497 32.6437 18.8319 31.5766 19.7236L 34.1417 22.7929C 35.1744 21.9296 36.2094 21.1031 37.2808 20.2862L 34.8554 17.1055ZM 26.8855 23.9187C 25.8801 24.8804 24.8804 25.8801 23.9187 26.8855L 26.8095 29.6501C 27.7401 28.6768 28.6768 27.7401 29.6501 26.8095L 26.8855 23.9187ZM 19.7236 31.5766C 18.8319 32.6437 17.9497 33.7485 17.1055 34.8554L 20.2862 37.2808C 21.1031 36.2094 21.9296 35.1744 22.7929 34.1417L 19.7236 31.5766ZM 13.4594 39.9849C 12.6927 41.1445 11.9391 42.3411 11.2234 43.5361L 14.6553 45.591C 15.3476 44.4344 16.0534 43.3137 16.7957 42.1916L 13.4594 39.9849ZM 8.17439 49.0414C 7.5428 50.2788 6.92817 51.5524 6.35086 52.821L 9.99176 54.4775C 10.5501 53.25 11.1255 52.0575 11.7369 50.8603L 8.17439 49.0414ZM 3.9393 58.6365C 3.45144 59.9361 2.98423 61.2708 2.55335 62.5974L 6.35779 63.8327C 6.7744 62.5494 7.21173 61.3 7.68401 60.0426L 3.9393 58.6365ZM 0.81318 68.6479C 0.475209 69.9938 0.161426 71.3734 -0.117438 72.7419L 3.80209 73.5402C 4.07163 72.2161 4.36538 70.9247 4.69264 69.6225L 0.81318 68.6479ZM -1.16397 78.9442C -1.34824 80.3178 -1.50514 81.7231 -1.62901 83.1151L 2.35528 83.4693C 2.47491 82.1222 2.62187 80.8058 2.80046 79.4764L -1.16397 78.9442ZM -1.97678 89.3959C -1.99212 90.0917 -1.99997 90.8005 -2 91.5L 2 91.5C 1.99997 90.8226 2.00733 90.1581 2.02224 89.4843L -1.97678 89.3959ZM -2 91.5C -1.99997 92.1995 -1.99212 92.9083 -1.97678 93.6041L 2.02224 93.5157C 2.00733 92.8419 1.99997 92.1774 2 91.5L -2 91.5ZM -1.62901 99.8849C -1.50514 101.277 -1.34824 102.682 -1.16397 104.056L 2.80046 103.524C 2.62187 102.194 2.47491 100.878 2.35528 99.5307L -1.62901 99.8849ZM -0.117436 110.258C 0.161427 111.627 0.475211 113.006 0.813181 114.352L 4.69264 113.378C 4.36538 112.075 4.07163 110.784 3.80209 109.46L -0.117436 110.258ZM 2.55335 120.403C 2.98423 121.729 3.45145 123.064 3.9393 124.364L 7.68401 122.957C 7.21173 121.7 6.7744 120.451 6.35779 119.167L 2.55335 120.403ZM 6.35086 130.179C 6.92818 131.448 7.5428 132.721 8.17439 133.959L 11.7369 132.14C 11.1255 130.942 10.5501 129.75 9.99176 128.522L 6.35086 130.179ZM 11.2234 139.464C 11.9391 140.659 12.6927 141.856 13.4594 143.015L 16.7957 140.808C 16.0534 139.686 15.3477 138.566 14.6553 137.409L 11.2234 139.464ZM 17.1055 148.145C 17.9497 149.251 18.8319 150.356 19.7236 151.423L 22.7929 148.858C 21.9296 147.826 21.1031 146.791 20.2862 145.719L 17.1055 148.145ZM 23.9187 156.115C 24.8804 157.12 25.8801 158.12 26.8855 159.081L 29.6501 156.191C 28.6768 155.26 27.7401 154.323 26.8095 153.35L 23.9187 156.115ZM 31.5766 163.276C 32.6437 164.168 33.7485 165.05 34.8554 165.895L 37.2808 162.714C 36.2094 161.897 35.1744 161.07 34.1417 160.207L 31.5766 163.276ZM 39.9849 169.541C 41.1445 170.307 42.3411 171.061 43.5361 171.777L 45.591 168.345C 44.4344 167.652 43.3137 166.947 42.1916 166.204L 39.9849 169.541ZM 49.0414 174.826C 50.2788 175.457 51.5524 176.072 52.821 176.649L 54.4775 173.008C 53.25 172.45 52.0575 171.874 50.8603 171.263L 49.0414 174.826ZM 58.6365 179.061C 59.9361 179.549 61.2708 180.016 62.5974 180.447L 63.8327 176.642C 62.5494 176.226 61.3 175.788 60.0426 175.316L 58.6365 179.061ZM 68.6479 182.187C 69.9938 182.525 71.3734 182.839 72.7419 183.117L 73.5402 179.198C 72.2161 178.928 70.9247 178.635 69.6225 178.307L 68.6479 182.187ZM 78.9442 184.164C 80.3178 184.348 81.7231 184.505 83.1151 184.629L 83.4693 180.645C 82.1222 180.525 80.8058 180.378 79.4764 180.2L 78.9442 184.164ZM 89.3959 184.977C 90.0917 184.992 90.8005 185 91.5 185L 91.5 181C 90.8226 181 90.1581 180.993 89.4843 180.978L 89.3959 184.977ZM 91.5 185C 92.1995 185 92.9083 184.992 93.6041 184.977L 93.5157 180.978C 92.8419 180.993 92.1774 181 91.5 181L 91.5 185ZM 99.8849 184.629C 101.277 184.505 102.682 184.348 104.056 184.164L 103.524 180.2C 102.194 180.378 100.878 180.525 99.5307 180.645L 99.8849 184.629ZM 110.258 183.117C 111.627 182.839 113.006 182.525 114.352 182.187L 113.378 178.307C 112.075 178.635 110.784 178.928 109.46 179.198L 110.258 183.117ZM 120.403 180.447C 121.729 180.016 123.064 179.549 124.364 179.061L 122.957 175.316C 121.7 175.788 120.451 176.226 119.167 176.642L 120.403 180.447ZM 130.179 176.649C 131.448 176.072 132.721 175.457 133.959 174.826L 132.14 171.263C 130.942 171.874 129.75 172.45 128.522 173.008L 130.179 176.649ZM 139.464 171.777C 140.659 171.061 141.856 170.307 143.015 169.541L 140.808 166.204C 139.686 166.947 138.566 167.652 137.409 168.345L 139.464 171.777ZM 148.145 165.895C 149.251 165.05 150.356 164.168 151.423 163.276L 148.858 160.207C 147.826 161.07 146.791 161.897 145.719 162.714L 148.145 165.895ZM 156.115 159.081C 157.12 158.12 158.12 157.12 159.081 156.115L 156.191 153.35C 155.26 154.323 154.323 155.26 153.35 156.191L 156.115 159.081ZM 163.276 151.423C 164.168 150.356 165.05 149.251 165.895 148.145L 162.714 145.719C 161.897 146.791 161.07 147.826 160.207 148.858L 163.276 151.423ZM 169.541 143.015C 170.307 141.856 171.061 140.659 171.777 139.464L 168.345 137.409C 167.652 138.566 166.947 139.686 166.204 140.808L 169.541 143.015ZM 174.826 133.959C 175.457 132.721 176.072 131.448 176.649 130.179L 173.008 128.522C 172.45 129.75 171.874 130.942 171.263 132.14L 174.826 133.959ZM 179.061 124.364C 179.549 123.064 180.016 121.729 180.447 120.403L 176.642 119.167C 176.226 120.451 175.788 121.7 175.316 122.957L 179.061 124.364ZM 182.187 114.352C 182.525 113.006 182.839 111.627 183.117 110.258L 179.198 109.46C 178.928 110.784 178.635 112.075 178.307 113.378L 182.187 114.352ZM 184.164 104.056C 184.348 102.682 184.505 101.277 184.629 99.8849L 180.645 99.5307C 180.525 100.878 180.378 102.194 180.2 103.524L 184.164 104.056ZM 184.977 93.6041C 184.992 92.9083 185 92.1995 185 91.5L 181 91.5C 181 92.1774 180.993 92.8419 180.978 93.5157L 184.977 93.6041Z"/>
<path id="path2_fill" d="M 77.4844 39.111C 77.4844 60.7115 60.1389 78.2221 38.7422 78.2221C 17.3455 78.2221 0 60.7115 0 39.111C 0 17.5106 17.3455 0 38.7422 0C 60.1389 0 77.4844 17.5106 77.4844 39.111Z"/>
<path id="path3_stroke_2x" d="M 78.4314 37.0225L 78.3806 36.0238L 76.3832 36.1254L 76.434 37.1241L 78.4314 37.0225ZM 75.218 29.2841L 75.4728 30.2511L 77.4068 29.7415L 77.152 28.7745L 75.218 29.2841ZM 75.8777 24.794L 75.5235 23.8588L 73.6532 24.5671L 74.0073 25.5023L 75.8777 24.794ZM 70.4419 18.4182L 70.9819 19.2598L 72.6652 18.1799L 72.1253 17.3382L 70.4419 18.4182ZM 69.6892 13.943L 69.0648 13.1619L 67.5025 14.4107L 68.1269 15.1918L 69.6892 13.943ZM 62.5585 9.54438L 63.3308 10.1795L 64.6012 8.63479L 63.8288 7.99963L 62.5585 9.54438ZM 60.4661 5.51746L 59.6315 4.96659L 58.5297 6.63578L 59.3643 7.18665L 60.4661 5.51746ZM 52.3251 3.54231L 53.2569 3.90537L 53.983 2.04184L 53.0512 1.67878L 52.3251 3.54231ZM 49.0794 0.370548L 48.1142 0.108847L 47.5908 2.03914L 48.556 2.30085L 49.0794 0.370548ZM 40.7277 1.05181L 41.7264 1.10405L 41.8309 -0.893217L 40.8322 -0.94546L 40.7277 1.05181ZM 36.6521 -0.94546L 35.6535 -0.893217L 35.758 1.10405L 36.7566 1.05181L 36.6521 -0.94546ZM 28.9284 2.30085L 29.8935 2.03915L 29.3701 0.108848L 28.405 0.370549L 28.9284 2.30085ZM 24.4331 1.67878L 23.5014 2.04184L 24.2275 3.90537L 25.1593 3.54231L 24.4331 1.67878ZM 18.12 7.18665L 18.9546 6.63578L 17.8529 4.96659L 17.0183 5.51746L 18.12 7.18665ZM 13.6555 7.99963L 12.8832 8.6348L 14.1535 10.1795L 14.9259 9.54438L 13.6555 7.99963ZM 9.35742 15.1918L 9.98181 14.4107L 8.41958 13.1619L 7.79519 13.943L 9.35742 15.1918ZM 5.3591 17.3382L 4.81912 18.1799L 6.50247 19.2598L 7.04245 18.4182L 5.3591 17.3382ZM 3.47704 25.5023L 3.83119 24.5671L 1.96081 23.8588L 1.60666 24.794L 3.47704 25.5023ZM 0.332357 28.7745L 0.0775351 29.7415L 2.01151 30.2511L 2.26633 29.2841L 0.332357 28.7745ZM 1.05039 37.1241L 1.10117 36.1254L -0.896253 36.0238L -0.947031 37.0225L 1.05039 37.1241ZM -0.94703 41.1996L -0.896253 42.1983L 1.10117 42.0967L 1.05039 41.098L -0.94703 41.1996ZM 2.26633 48.9379L 2.01151 47.971L 0.0775357 48.4806L 0.332358 49.4476L 2.26633 48.9379ZM 1.60666 53.4281L 1.96082 54.3633L 3.83119 53.655L 3.47704 52.7198L 1.60666 53.4281ZM 7.04245 59.8039L 6.50247 58.9623L 4.81912 60.0422L 5.3591 60.8839L 7.04245 59.8039ZM 7.79519 64.279L 8.41958 65.0602L 9.98181 63.8114L 9.35742 63.0303L 7.79519 64.279ZM 14.9259 68.6777L 14.1535 68.0425L 12.8832 69.5873L 13.6556 70.2225L 14.9259 68.6777ZM 17.0183 72.7046L 17.8529 73.2555L 18.9546 71.5863L 18.12 71.0354L 17.0183 72.7046ZM 25.1593 74.6798L 24.2275 74.3167L 23.5014 76.1802L 24.4331 76.5433L 25.1593 74.6798ZM 28.405 77.8515L 29.3701 78.1132L 29.8935 76.1829L 28.9284 75.9212L 28.405 77.8515ZM 36.7566 77.1703L 35.758 77.118L 35.6535 79.1153L 36.6521 79.1675L 36.7566 77.1703ZM 40.8322 79.1675L 41.8309 79.1153L 41.7264 77.118L 40.7277 77.1703L 40.8322 79.1675ZM 48.556 75.9212L 47.5908 76.1829L 48.1142 78.1132L 49.0794 77.8515L 48.556 75.9212ZM 53.0512 76.5433L 53.983 76.1802L 53.2569 74.3167L 52.3251 74.6798L 53.0512 76.5433ZM 59.3643 71.0354L 58.5297 71.5863L 59.6315 73.2555L 60.4661 72.7046L 59.3643 71.0354ZM 63.8288 70.2225L 64.6012 69.5873L 63.3308 68.0425L 62.5585 68.6777L 63.8288 70.2225ZM 68.1269 63.0303L 67.5025 63.8114L 69.0648 65.0602L 69.6892 64.279L 68.1269 63.0303ZM 72.1253 60.8839L 72.6652 60.0422L 70.9819 58.9622L 70.4419 59.8039L 72.1253 60.8839ZM 74.0073 52.7198L 73.6532 53.655L 75.5235 54.3633L 75.8777 53.4281L 74.0073 52.7198ZM 77.152 49.4476L 77.4068 48.4806L 75.4728 47.971L 75.218 48.9379L 77.152 49.4476ZM 76.434 41.098L 76.3832 42.0967L 78.3806 42.1983L 78.4314 41.1996L 76.434 41.098ZM 78.4844 39.111C 78.4843 38.4148 78.4663 37.71 78.4314 37.0225L 76.434 37.1241C 76.4677 37.7863 76.4844 38.4403 76.4844 39.111L 78.4844 39.111ZM 77.152 28.7745C 76.7964 27.4265 76.365 26.0818 75.8777 24.794L 74.0073 25.5023C 74.477 26.7416 74.8765 27.987 75.218 29.2841L 77.152 28.7745ZM 72.1253 17.3382C 71.3755 16.1701 70.5519 15.0229 69.6892 13.943L 68.1269 15.1918C 68.9579 16.2309 69.7209 17.2936 70.4419 18.4182L 72.1253 17.3382ZM 63.8288 7.99963C 62.7598 7.12097 61.6234 6.28177 60.4661 5.51746L 59.3643 7.18665C 60.4781 7.92136 61.5302 8.6983 62.5585 9.54438L 63.8288 7.99963ZM 53.0512 1.67878C 51.7668 1.1787 50.4247 0.735698 49.0794 0.370548L 48.556 2.30085C 49.8493 2.65115 51.0901 3.06073 52.3251 3.54231L 53.0512 1.67878ZM 40.8322 -0.94546C 40.1444 -0.981358 39.4389 -0.999914 38.7422 -1L 38.7422 1C 39.4126 0.999914 40.0659 1.0171 40.7277 1.05181L 40.8322 -0.94546ZM 38.7422 -1C 38.0455 -0.999914 37.3399 -0.981358 36.6521 -0.94546L 36.7566 1.05181C 37.4185 1.0171 38.0718 0.999914 38.7422 1L 38.7422 -1ZM 28.405 0.370549C 27.0597 0.735699 25.7175 1.1787 24.4331 1.67878L 25.1593 3.54231C 26.3943 3.06073 27.6351 2.65115 28.9284 2.30085L 28.405 0.370549ZM 17.0183 5.51746C 15.8609 6.28178 14.7245 7.12097 13.6555 7.99963L 14.9259 9.54438C 15.9542 8.6983 17.0062 7.92136 18.12 7.18665L 17.0183 5.51746ZM 7.79519 13.943C 6.93242 15.0229 6.1089 16.1701 5.3591 17.3382L 7.04245 18.4182C 7.76349 17.2936 8.52643 16.2309 9.35742 15.1918L 7.79519 13.943ZM 1.60666 24.794C 1.11933 26.0818 0.687947 27.4265 0.332357 28.7745L 2.26633 29.2841C 2.6078 27.987 3.00734 26.7416 3.47704 25.5023L 1.60666 24.794ZM -0.947031 37.0225C -0.981904 37.71 -0.999918 38.4148 -1 39.111L 1 39.111C 0.999918 38.4403 1.01664 37.7863 1.05039 37.1241L -0.947031 37.0225ZM -1 39.111C -0.999918 39.8073 -0.981904 40.5121 -0.94703 41.1996L 1.05039 41.098C 1.01664 40.4358 0.999918 39.7817 1 39.111L -1 39.111ZM 0.332358 49.4476C 0.687948 50.7956 1.11933 52.1403 1.60666 53.4281L 3.47704 52.7198C 3.00735 51.4805 2.6078 50.2351 2.26633 48.9379L 0.332358 49.4476ZM 5.3591 60.8839C 6.1089 62.052 6.93243 63.1992 7.79519 64.279L 9.35742 63.0303C 8.52643 61.9912 7.76349 60.9284 7.04245 59.8039L 5.3591 60.8839ZM 13.6556 70.2225C 14.7246 71.1011 15.8609 71.9403 17.0183 72.7046L 18.12 71.0354C 17.0062 70.3007 15.9542 69.5238 14.9259 68.6777L 13.6556 70.2225ZM 24.4331 76.5433C 25.7175 77.0434 27.0597 77.4864 28.405 77.8515L 28.9284 75.9212C 27.6351 75.5709 26.3943 75.1614 25.1593 74.6798L 24.4331 76.5433ZM 36.6521 79.1675C 37.3399 79.2034 38.0455 79.222 38.7422 79.2221L 38.7422 77.2221C 38.0718 77.2222 37.4185 77.205 36.7566 77.1703L 36.6521 79.1675ZM 38.7422 79.2221C 39.4389 79.222 40.1444 79.2034 40.8322 79.1675L 40.7277 77.1703C 40.0659 77.205 39.4126 77.2222 38.7422 77.2221L 38.7422 79.2221ZM 49.0794 77.8515C 50.4247 77.4864 51.7668 77.0434 53.0512 76.5433L 52.3251 74.6798C 51.0901 75.1614 49.8493 75.5709 48.556 75.9212L 49.0794 77.8515ZM 60.4661 72.7046C 61.6234 71.9403 62.7598 71.1011 63.8288 70.2225L 62.5585 68.6777C 61.5302 69.5238 60.4781 70.3007 59.3643 71.0354L 60.4661 72.7046ZM 69.6892 64.279C 70.5519 63.1992 71.3755 62.052 72.1253 60.8839L 70.4419 59.8039C 69.7209 60.9284 68.9579 61.9912 68.1269 63.0303L 69.6892 64.279ZM 75.8777 53.4281C 76.365 52.1403 76.7964 50.7956 77.152 49.4476L 75.218 48.9379C 74.8765 50.2351 74.477 51.4805 74.0073 52.7198L 75.8777 53.4281ZM 78.4314 41.1996C 78.4663 40.5121 78.4843 39.8073 78.4844 39.111L 76.4844 39.111C 76.4844 39.7817 76.4677 40.4358 76.434 41.098L 78.4314 41.1996ZM 79.4301 36.9717L 79.3285 34.9743L 75.3337 35.1774L 75.4352 37.1748L 79.4301 36.9717ZM 74.251 29.539L 74.7607 31.4729L 78.6286 30.4536L 78.119 28.5197L 74.251 29.539ZM 76.8129 24.4398L 76.1046 22.5694L 72.3638 23.9861L 73.0721 25.8564L 76.8129 24.4398ZM 69.6002 18.9581L 70.6802 20.6415L 74.0469 18.4816L 72.9669 16.7982L 69.6002 18.9581ZM 70.4703 13.3187L 69.2215 11.7564L 66.097 14.254L 67.3458 15.8162L 70.4703 13.3187ZM 61.9233 10.3167L 63.468 11.5871L 66.0087 8.49759L 64.464 7.22725L 61.9233 10.3167ZM 61.0169 4.68286L 59.3477 3.58113L 57.1443 6.91951L 58.8135 8.02124L 61.0169 4.68286ZM 51.962 4.47408L 53.8256 5.2002L 55.2778 1.47313L 53.4143 0.747014L 51.962 4.47408ZM 49.3411 -0.594601L 47.4108 -1.118L 46.364 2.74259L 48.2943 3.26599L 49.3411 -0.594601ZM 40.6755 2.05044L 42.6728 2.15493L 42.8817 -1.83961L 40.8845 -1.94409L 40.6755 2.05044ZM 36.5999 -1.94409L 34.6026 -1.83961L 34.8116 2.15493L 36.8089 2.05044L 36.5999 -1.94409ZM 29.1901 3.266L 31.1204 2.74259L 30.0736 -1.118L 28.1433 -0.5946L 29.1901 3.266ZM 24.0701 0.747015L 22.2065 1.47313L 23.6588 5.2002L 25.5223 4.47408L 24.0701 0.747015ZM 18.6709 8.02124L 20.3401 6.91952L 18.1366 3.58113L 16.4674 4.68286L 18.6709 8.02124ZM 13.0204 7.22725L 11.4756 8.49759L 14.0163 11.5871L 15.5611 10.3168L 13.0204 7.22725ZM 10.1385 15.8162L 11.3873 14.254L 8.26285 11.7564L 7.01408 13.3187L 10.1385 15.8162ZM 4.51742 16.7982L 3.43746 18.4816L 6.80416 20.6415L 7.88413 18.9581L 4.51742 16.7982ZM 4.41222 25.8564L 5.12053 23.9861L 1.37978 22.5694L 0.671474 24.4398L 4.41222 25.8564ZM -0.634631 28.5197L -1.14427 30.4537L 2.72368 31.4729L 3.23332 29.539L -0.634631 28.5197ZM 2.0491 37.1748L 2.15065 35.1774L -1.84419 34.9743L -1.94574 36.9717L 2.0491 37.1748ZM -1.94574 41.2504L -1.84419 43.2478L 2.15065 43.0447L 2.0491 41.0472L -1.94574 41.2504ZM 3.23332 48.6831L 2.72368 46.7491L -1.14427 47.7684L -0.63463 49.7024L 3.23332 48.6831ZM 0.671475 53.7823L 1.37978 55.6526L 5.12053 54.236L 4.41222 52.3657L 0.671475 53.7823ZM 7.88413 59.2639L 6.80416 57.5806L 3.43746 59.7405L 4.51742 61.4239L 7.88413 59.2639ZM 7.01408 64.9034L 8.26285 66.4657L 11.3873 63.9681L 10.1385 62.4059L 7.01408 64.9034ZM 15.5611 67.9053L 14.0163 66.635L 11.4756 69.7245L 13.0204 70.9948L 15.5611 67.9053ZM 16.4674 73.5392L 18.1366 74.641L 20.3401 71.3026L 18.6709 70.2008L 16.4674 73.5392ZM 25.5223 73.748L 23.6588 73.0219L 22.2066 76.749L 24.0701 77.4751L 25.5223 73.748ZM 28.1433 78.8167L 30.0736 79.3401L 31.1204 75.4795L 29.1901 74.9561L 28.1433 78.8167ZM 36.8089 76.1716L 34.8116 76.0672L 34.6026 80.0617L 36.5999 80.1662L 36.8089 76.1716ZM 40.8845 80.1662L 42.8817 80.0617L 42.6728 76.0672L 40.6755 76.1716L 40.8845 80.1662ZM 48.2943 74.9561L 46.364 75.4795L 47.4108 79.3401L 49.3411 78.8167L 48.2943 74.9561ZM 53.4143 77.4751L 55.2778 76.749L 53.8256 73.0219L 51.962 73.748L 53.4143 77.4751ZM 58.8135 70.2008L 57.1443 71.3026L 59.3477 74.641L 61.0169 73.5392L 58.8135 70.2008ZM 64.464 70.9948L 66.0087 69.7245L 63.4681 66.635L 61.9233 67.9053L 64.464 70.9948ZM 67.3458 62.4059L 66.097 63.9681L 69.2215 66.4657L 70.4703 64.9034L 67.3458 62.4059ZM 72.9669 61.4239L 74.0469 59.7405L 70.6802 57.5806L 69.6002 59.2639L 72.9669 61.4239ZM 73.0721 52.3657L 72.3638 54.236L 76.1046 55.6526L 76.8129 53.7823L 73.0721 52.3657ZM 78.119 49.7024L 78.6286 47.7684L 74.7607 46.7491L 74.251 48.6831L 78.119 49.7024ZM 75.4352 41.0472L 75.3337 43.0447L 79.3285 43.2478L 79.4301 41.2503L 75.4352 41.0472ZM 79.4844 39.111C 79.4842 38.402 79.4655 37.6718 79.4301 36.9717L 75.4352 37.1748C 75.4684 37.8245 75.4845 38.4531 75.4844 39.111L 79.4844 39.111ZM 78.119 28.5197C 77.7563 27.1462 77.309 25.7518 76.8129 24.4398L 73.0721 25.8564C 73.533 27.0715 73.9166 28.2672 74.251 29.539L 78.119 28.5197ZM 72.9669 16.7982C 72.2028 15.6083 71.3489 14.4189 70.4703 13.3187L 67.3458 15.8162C 68.1609 16.8348 68.8936 17.8554 69.6002 18.9581L 72.9669 16.7982ZM 64.464 7.22725C 63.3746 6.3323 62.1961 5.46198 61.0169 4.68286L 58.8135 8.02124C 59.9054 8.74115 60.9153 9.48697 61.9233 10.3167L 64.464 7.22725ZM 53.4143 0.747014C 52.1052 0.237686 50.7123 -0.222029 49.3411 -0.594601L 48.2943 3.26599C 49.5616 3.60888 50.7517 4.00174 51.962 4.47408L 53.4143 0.747014ZM 40.8845 -1.94409C 40.1837 -1.98059 39.452 -1.99983 38.7422 -2L 38.7422 2C 39.3994 1.99983 40.0266 2.01633 40.6755 2.05044L 40.8845 -1.94409ZM 38.7422 -2C 38.0323 -1.99983 37.3007 -1.98059 36.5999 -1.94409L 36.8089 2.05044C 37.4578 2.01633 38.0849 1.99983 38.7422 2L 38.7422 -2ZM 28.1433 -0.5946C 26.772 -0.222029 25.3792 0.237687 24.0701 0.747015L 25.5223 4.47408C 26.7326 4.00174 27.9227 3.60888 29.1901 3.266L 28.1433 -0.5946ZM 16.4674 4.68286C 15.2883 5.46198 14.1097 6.3323 13.0204 7.22725L 15.5611 10.3168C 16.569 9.48697 17.5789 8.74116 18.6709 8.02124L 16.4674 4.68286ZM 7.01408 13.3187C 6.13542 14.4189 5.2816 15.6083 4.51742 16.7982L 7.88413 18.9581C 8.59079 17.8554 9.32343 16.8348 10.1385 15.8162L 7.01408 13.3187ZM 0.671474 24.4398C 0.175323 25.7518 -0.271981 27.1462 -0.634631 28.5197L 3.23332 29.539C 3.56773 28.2672 3.95135 27.0715 4.41222 25.8564L 0.671474 24.4398ZM -1.94574 36.9717C -1.98118 37.6718 -1.99984 38.402 -2 39.111L 2 39.111C 1.99984 38.4531 2.01591 37.8245 2.0491 37.1748L -1.94574 36.9717ZM -2 39.111C -1.99984 39.8201 -1.98118 40.5503 -1.94574 41.2504L 2.0491 41.0472C 2.01591 40.3976 1.99984 39.769 2 39.111L -2 39.111ZM -0.63463 49.7024C -0.27198 51.0758 0.175324 52.4702 0.671475 53.7823L 4.41222 52.3657C 3.95135 51.1505 3.56773 49.9549 3.23332 48.6831L -0.63463 49.7024ZM 4.51742 61.4239C 5.2816 62.6137 6.13542 63.8032 7.01408 64.9034L 10.1385 62.4059C 9.32343 61.3872 8.59079 60.3667 7.88413 59.2639L 4.51742 61.4239ZM 13.0204 70.9948C 14.1097 71.8898 15.2883 72.7601 16.4674 73.5392L 18.6709 70.2008C 17.5789 69.4809 16.569 68.7351 15.5611 67.9053L 13.0204 70.9948ZM 24.0701 77.4751C 25.3792 77.9844 26.772 78.4441 28.1433 78.8167L 29.1901 74.9561C 27.9227 74.6132 26.7326 74.2203 25.5223 73.748L 24.0701 77.4751ZM 36.5999 80.1662C 37.3007 80.2027 38.0323 80.2219 38.7422 80.2221L 38.7422 76.2221C 38.0849 76.2223 37.4578 76.2058 36.8089 76.1716L 36.5999 80.1662ZM 38.7422 80.2221C 39.452 80.2219 40.1837 80.2027 40.8845 80.1662L 40.6755 76.1716C 40.0266 76.2058 39.3994 76.2223 38.7422 76.2221L 38.7422 80.2221ZM 49.3411 78.8167C 50.7123 78.4441 52.1052 77.9844 53.4143 77.4751L 51.962 73.748C 50.7517 74.2203 49.5616 74.6132 48.2943 74.9561L 49.3411 78.8167ZM 61.0169 73.5392C 62.1961 72.7601 63.3746 71.8898 64.464 70.9948L 61.9233 67.9053C 60.9153 68.7351 59.9054 69.4809 58.8135 70.2008L 61.0169 73.5392ZM 70.4703 64.9034C 71.3489 63.8031 72.2028 62.6137 72.9669 61.4239L 69.6002 59.2639C 68.8936 60.3667 68.1609 61.3872 67.3458 62.4059L 70.4703 64.9034ZM 76.8129 53.7823C 77.309 52.4702 77.7563 51.0758 78.119 49.7024L 74.251 48.6831C 73.9166 49.9549 73.533 51.1505 73.0721 52.3657L 76.8129 53.7823ZM 79.4301 41.2503C 79.4655 40.5503 79.4842 39.8201 79.4844 39.111L 75.4844 39.111C 75.4845 39.769 75.4684 40.3976 75.4352 41.0472L 79.4301 41.2503Z"/>
<path id="path4_stroke" d="M 42.3899 0L 43.1004 -0.703739L 42.7739 -1.0333L 42.3115 -0.99692L 42.3899 0ZM 77.6101 0L 77.6885 -0.99692L 77.2261 -1.0333L 76.8996 -0.703758L 77.6101 0ZM 112.83 14.2222L 113.541 13.5184L 112.83 14.2222ZM 119.874 72.6666L 119.874 73.6666L 120.841 73.6666L 120.874 72.6999L 119.874 72.6666ZM 0.125724 72.6666L -0.873721 72.6999L -0.841507 73.6666L 0.125724 73.6666L 0.125724 72.6666ZM 7.16976 14.2222L 6.45931 13.5184L 7.16976 14.2222ZM 40.3533 -0.781125L 39.3615 -0.65363L 39.6165 1.33005L 40.6083 1.20255L 40.3533 -0.781125ZM 34.9558 2.15033L 35.9355 1.95006L 35.535 -0.00942574L 34.5553 0.190844L 34.9558 2.15033ZM 30.7388 1.0636L 29.7695 1.30935L 30.261 3.24801L 31.2303 3.00226L 30.7388 1.0636ZM 25.7385 4.61508L 26.6862 4.29593L 26.0479 2.40052L 25.1002 2.71967L 25.7385 4.61508ZM 21.418 4.07835L 20.4906 4.45241L 21.2387 6.30722L 22.1661 5.93317L 21.418 4.07835ZM 16.9988 8.32641L 17.882 7.85749L 16.9442 6.091L 16.0609 6.55992L 16.9988 8.32641ZM 12.651 8.55461L 11.8106 9.09658L 12.8945 10.7774L 13.7349 10.2354L 12.651 8.55461ZM 9.2382 13.6372L 9.98396 12.971L 8.65153 11.4795L 7.90577 12.1457L 9.2382 13.6372ZM 5.12225 15.257L 4.59795 16.1085L 6.30102 17.1571L 6.82532 16.3056L 5.12225 15.257ZM 4.67689 21.5667L 4.9545 20.606L 3.0331 20.0508L 2.7555 21.0115L 4.67689 21.5667ZM 1.79136 24.9462L 1.58727 25.9252L 3.54518 26.3333L 3.74927 25.3544L 1.79136 24.9462ZM 2.75999 31.1592L 2.89771 30.1687L 0.916767 29.8932L 0.779047 30.8837L 2.75999 31.1592ZM 0.289964 34.8583L 0.182114 35.8525L 2.17045 36.0682L 2.2783 35.074L 0.289964 34.8583ZM 1.74306 40.9787L 1.81754 39.9815L -0.176905 39.8326L -0.251385 40.8298L 1.74306 40.9787ZM -0.512988 44.8141L -0.570039 45.8124L 1.4267 45.9265L 1.48375 44.9282L -0.512988 44.8141ZM 1.21115 50.8632L 1.24661 49.8638L -0.752129 49.7929L -0.787589 50.7923L 1.21115 50.8632ZM -0.903972 54.7776L -0.92711 55.7773L 1.07235 55.8236L 1.09549 54.8238L -0.903972 54.7776ZM 1.00814 60.7604L 1.01471 59.7604L -0.985244 59.7473L -0.991815 60.7472L 1.00814 60.7604ZM -0.997112 64.7286L -0.993219 65.7286L 1.00677 65.7208L 1.00287 64.7208L -0.997112 64.7286ZM 1.07519 70.6769L 1.05399 69.6772L -0.945556 69.7196L -0.92436 70.7193L 1.07519 70.6769ZM 2.12153 73.6666L 3.12153 73.6666L 3.12153 71.6666L 2.12153 71.6666L 2.12153 73.6666ZM 8.10896 71.6666L 7.10896 71.6666L 7.10896 73.6666L 8.10896 73.6666L 8.10896 71.6666ZM 12.1006 73.6666L 13.1006 73.6666L 13.1006 71.6666L 12.1006 71.6666L 12.1006 73.6666ZM 18.088 71.6666L 17.088 71.6666L 17.088 73.6666L 18.088 73.6666L 18.088 71.6666ZM 22.0796 73.6666L 23.0796 73.6666L 23.0796 71.6666L 22.0796 71.6666L 22.0796 73.6666ZM 28.0671 71.6666L 27.0671 71.6666L 27.0671 73.6666L 28.0671 73.6666L 28.0671 71.6666ZM 32.0587 73.6666L 33.0587 73.6666L 33.0587 71.6666L 32.0587 71.6666L 32.0587 73.6666ZM 38.0461 71.6666L 37.0461 71.6666L 37.0461 73.6666L 38.0461 73.6666L 38.0461 71.6666ZM 42.0377 73.6666L 43.0377 73.6666L 43.0377 71.6666L 42.0377 71.6666L 42.0377 73.6666ZM 48.0251 71.6666L 47.0251 71.6666L 47.0251 73.6666L 48.0251 73.6666L 48.0251 71.6666ZM 52.0168 73.6666L 53.0168 73.6666L 53.0168 71.6666L 52.0168 71.6666L 52.0168 73.6666ZM 58.0042 71.6666L 57.0042 71.6666L 57.0042 73.6666L 58.0042 73.6666L 58.0042 71.6666ZM 61.9958 73.6666L 62.9958 73.6666L 62.9958 71.6666L 61.9958 71.6666L 61.9958 73.6666ZM 67.9832 71.6666L 66.9832 71.6666L 66.9832 73.6666L 67.9832 73.6666L 67.9832 71.6666ZM 71.9749 73.6666L 72.9749 73.6666L 72.9749 71.6666L 71.9749 71.6666L 71.9749 73.6666ZM 77.9623 71.6666L 76.9623 71.6666L 76.9623 73.6666L 77.9623 73.6666L 77.9623 71.6666ZM 81.9539 73.6666L 82.9539 73.6666L 82.9539 71.6666L 81.9539 71.6666L 81.9539 73.6666ZM 87.9413 71.6666L 86.9413 71.6666L 86.9413 73.6666L 87.9413 73.6666L 87.9413 71.6666ZM 91.9329 73.6666L 92.9329 73.6666L 92.9329 71.6666L 91.9329 71.6666L 91.9329 73.6666ZM 97.9204 71.6666L 96.9204 71.6666L 96.9204 73.6666L 97.9204 73.6666L 97.9204 71.6666ZM 101.912 73.6666L 102.912 73.6666L 102.912 71.6666L 101.912 71.6666L 101.912 73.6666ZM 107.899 71.6666L 106.899 71.6666L 106.899 73.6666L 107.899 73.6666L 107.899 71.6666ZM 111.891 73.6666L 112.891 73.6666L 112.891 71.6666L 111.891 71.6666L 111.891 73.6666ZM 117.878 71.6666L 116.878 71.6666L 116.878 73.6666L 117.878 73.6666L 117.878 71.6666ZM 120.924 70.7193L 120.946 69.7196L 118.946 69.6772L 118.925 70.6769L 120.924 70.7193ZM 118.997 64.7208L 118.993 65.7208L 120.993 65.7286L 120.997 64.7286L 118.997 64.7208ZM 120.992 60.7472L 120.985 59.7473L 118.985 59.7604L 118.992 60.7604L 120.992 60.7472ZM 118.905 54.8238L 118.928 55.8236L 120.927 55.7773L 120.904 54.7776L 118.905 54.8238ZM 120.788 50.7923L 120.752 49.7929L 118.753 49.8638L 118.789 50.8632L 120.788 50.7923ZM 118.516 44.9282L 118.573 45.9265L 120.57 45.8124L 120.513 44.8141L 118.516 44.9282ZM 120.251 40.8298L 120.177 39.8326L 118.182 39.9815L 118.257 40.9787L 120.251 40.8298ZM 117.722 35.074L 117.83 36.0682L 119.818 35.8525L 119.71 34.8583L 117.722 35.074ZM 119.221 30.8837L 119.083 29.8932L 117.102 30.1687L 117.24 31.1592L 119.221 30.8837ZM 116.251 25.3544L 116.455 26.3333L 118.413 25.9252L 118.209 24.9462L 116.251 25.3544ZM 117.244 21.0115L 116.967 20.0508L 115.046 20.606L 115.323 21.5667L 117.244 21.0115ZM 113.175 16.3056L 113.699 17.1571L 115.402 16.1085L 114.878 15.257L 113.175 16.3056ZM 112.094 12.1457L 111.348 11.4795L 110.016 12.971L 110.762 13.6372L 112.094 12.1457ZM 106.265 10.2354L 107.105 10.7774L 108.189 9.09658L 107.349 8.55461L 106.265 10.2354ZM 103.939 6.55991L 103.056 6.091L 102.118 7.85749L 103.001 8.32641L 103.939 6.55991ZM 97.8339 5.93317L 98.7613 6.30722L 99.5094 4.45241L 98.582 4.07835L 97.8339 5.93317ZM 94.8998 2.71966L 93.9521 2.40052L 93.3138 4.29593L 94.2615 4.61508L 94.8998 2.71966ZM 88.7697 3.00226L 89.739 3.24801L 90.2305 1.30935L 89.2612 1.0636L 88.7697 3.00226ZM 85.4447 0.190843L 84.465 -0.009426L 84.0644 1.95006L 85.0442 2.15033L 85.4447 0.190843ZM 79.3917 1.20255L 80.3835 1.33005L 80.6385 -0.653631L 79.6467 -0.781125L 79.3917 1.20255ZM 75.5921 0.405888L 74.7814 0.991358L 75.9523 2.61275L 76.763 2.02728L 75.5921 0.405888ZM 71.4409 4.63968L 72.3902 4.32531L 71.7615 2.42671L 70.8122 2.74108L 71.4409 4.63968ZM 67.2934 3.65248L 66.312 3.84446L 66.696 5.80726L 67.6774 5.61528L 67.2934 3.65248ZM 61.9271 6.28988L 62.9261 6.24473L 62.8358 4.24677L 61.8368 4.29192L 61.9271 6.28988ZM 58.1631 4.29193L 57.1641 4.24679L 57.0738 6.24475L 58.0728 6.2899L 58.1631 4.29193ZM 52.3226 5.61532L 53.304 5.80729L 53.6879 3.8445L 52.7065 3.65252L 52.3226 5.61532ZM 49.1878 2.74113L 48.2385 2.42676L 47.6097 4.32536L 48.559 4.63973L 49.1878 2.74113ZM 43.2369 2.0273L 44.0476 2.61278L 45.2186 0.991407L 44.4079 0.405926L 43.2369 2.0273ZM 42.3899 0C 42.3115 -0.99692 42.3114 -0.996917 42.3114 -0.996913C 42.3114 -0.996911 42.3113 -0.996908 42.3113 -0.996904C 42.3112 -0.996901 42.3111 -0.996891 42.311 -0.996884C 42.3109 -0.996872 42.3106 -0.996849 42.3103 -0.996827C 42.3099 -0.996791 42.309 -0.996723 42.3081 -0.996651C 42.3065 -0.996525 42.3038 -0.996307 42.3007 -0.99605C 42.2948 -0.995574 42.2854 -0.994797 42.2738 -0.993819C 42.2514 -0.99194 42.2167 -0.988949 42.1727 -0.984997C 42.0867 -0.977255 41.9559 -0.96498 41.7891 -0.947993C 41.4594 -0.914382 40.969 -0.86023 40.3533 -0.781125L 40.6083 1.20255C 41.2062 1.12565 41.6705 1.07445 41.9919 1.0417C 42.1507 1.02551 42.2696 1.01436 42.3518 1.00697C 42.392 1.00335 42.4211 1.00085 42.4416 0.99913C 42.4513 0.998307 42.458 0.997757 42.4629 0.997355C 42.4652 0.997173 42.4665 0.997065 42.4677 0.996975C 42.4681 0.996939 42.4683 0.996925 42.4685 0.996907C 42.4686 0.996903 42.4686 0.996901 42.4685 0.996904C 42.4686 0.996903 42.4685 0.99691 42.4685 0.996909C 42.4685 0.996911 42.4684 0.996914 42.4684 0.996914C 42.4684 0.996917 42.4683 0.99692 42.3899 0ZM 34.5553 0.190844C 33.3746 0.432229 32.0853 0.722318 30.7388 1.0636L 31.2303 3.00226C 32.5505 2.66745 33.7944 2.38768 34.9558 2.15033L 34.5553 0.190844ZM 25.1002 2.71967C 23.8927 3.12638 22.6509 3.58123 21.418 4.07835L 22.1661 5.93317C 23.3689 5.44789 24.5558 5.01325 25.7385 4.61508L 25.1002 2.71967ZM 16.0609 6.55992C 14.9097 7.17131 13.7563 7.8421 12.651 8.55461L 13.7349 10.2354C 14.8013 9.54741 15.8815 8.91934 16.9988 8.32641L 16.0609 6.55992ZM 7.90577 12.1457C 7.41418 12.585 6.92408 13.0494 6.45931 13.5184L 7.88021 14.9259C 8.32252 14.4792 8.76836 14.0568 9.2382 13.6372L 7.90577 12.1457ZM 6.45931 13.5184C 5.99243 13.9928 5.52428 14.6064 5.12225 15.257L 6.82532 16.3056C 7.17355 15.7377 7.5018 15.305 7.88021 14.9259L 6.45931 13.5184ZM 2.7555 21.0115C 2.40409 22.2285 2.08067 23.5591 1.79136 24.9462L 3.74927 25.3544C 4.03161 23.9994 4.33696 22.7423 4.67689 21.5667L 2.7555 21.0115ZM 0.779047 30.8837C 0.599358 32.1763 0.436251 33.5101 0.289964 34.8583L 2.2783 35.074C 2.42307 33.7393 2.5825 32.4354 2.75999 31.1592L 0.779047 30.8837ZM -0.251385 40.8298C -0.350376 42.1553 -0.437306 43.4898 -0.512988 44.8141L 1.48375 44.9282C 1.55897 43.6119 1.64475 42.2948 1.74306 40.9787L -0.251385 40.8298ZM -0.787589 50.7923C -0.835681 52.1478 -0.873992 53.4824 -0.903972 54.7776L 1.09549 54.8238C 1.12534 53.5342 1.16329 52.212 1.21115 50.8632L -0.787589 50.7923ZM -0.991815 60.7472C -1.00114 62.1674 -1.00188 63.5041 -0.997112 64.7286L 1.00287 64.7208C 0.998119 63.5007 0.998845 62.1746 1.00814 60.7604L -0.991815 60.7472ZM -0.92436 70.7193C -0.910945 71.352 -0.898288 71.8473 -0.889024 72.1828C -0.884379 72.3511 -0.880553 72.4804 -0.877911 72.5669C -0.876582 72.6104 -0.875535 72.6436 -0.874831 72.6657C -0.874475 72.6768 -0.874197 72.6854 -0.874015 72.691C -0.873921 72.6938 -0.873848 72.6961 -0.873801 72.6975C -0.873776 72.6982 -0.873756 72.6988 -0.873744 72.6992C -0.873737 72.6994 -0.873731 72.6996 -0.873728 72.6997C -0.873726 72.6997 -0.873724 72.6998 -0.873723 72.6998C -0.873723 72.6998 -0.873722 72.6999 -0.873722 72.6999C -0.873721 72.6999 -0.873721 72.6999 0.125724 72.6666C 1.12517 72.6333 1.12517 72.6333 1.12517 72.6333C 1.12517 72.6333 1.12517 72.6333 1.12517 72.6333C 1.12517 72.6333 1.12517 72.6333 1.12517 72.6332C 1.12517 72.6332 1.12516 72.6331 1.12516 72.6329C 1.12515 72.6326 1.12513 72.6322 1.12511 72.6316C 1.12507 72.6302 1.12501 72.6283 1.12492 72.6257C 1.12475 72.6203 1.12449 72.6125 1.12415 72.6018C 1.12346 72.5802 1.12246 72.5484 1.12116 72.5058C 1.11854 72.4203 1.1148 72.2939 1.11021 72.1276C 1.10101 71.7942 1.08851 71.3053 1.07519 70.6769L -0.92436 70.7193ZM 0.125724 73.6666L 2.12153 73.6666L 2.12153 71.6666L 0.125724 71.6666L 0.125724 73.6666ZM 8.10896 73.6666L 12.1006 73.6666L 12.1006 71.6666L 8.10896 71.6666L 8.10896 73.6666ZM 18.088 73.6666L 22.0796 73.6666L 22.0796 71.6666L 18.088 71.6666L 18.088 73.6666ZM 28.0671 73.6666L 32.0587 73.6666L 32.0587 71.6666L 28.0671 71.6666L 28.0671 73.6666ZM 38.0461 73.6666L 42.0377 73.6666L 42.0377 71.6666L 38.0461 71.6666L 38.0461 73.6666ZM 48.0251 73.6666L 52.0168 73.6666L 52.0168 71.6666L 48.0251 71.6666L 48.0251 73.6666ZM 58.0042 73.6666L 61.9958 73.6666L 61.9958 71.6666L 58.0042 71.6666L 58.0042 73.6666ZM 67.9832 73.6666L 71.9749 73.6666L 71.9749 71.6666L 67.9832 71.6666L 67.9832 73.6666ZM 77.9623 73.6666L 81.9539 73.6666L 81.9539 71.6666L 77.9623 71.6666L 77.9623 73.6666ZM 87.9413 73.6666L 91.9329 73.6666L 91.9329 71.6666L 87.9413 71.6666L 87.9413 73.6666ZM 97.9204 73.6666L 101.912 73.6666L 101.912 71.6666L 97.9204 71.6666L 97.9204 73.6666ZM 107.899 73.6666L 111.891 73.6666L 111.891 71.6666L 107.899 71.6666L 107.899 73.6666ZM 117.878 73.6666L 119.874 73.6666L 119.874 71.6666L 117.878 71.6666L 117.878 73.6666ZM 119.874 72.6666C 120.874 72.6999 120.874 72.6999 120.874 72.6999C 120.874 72.6999 120.874 72.6998 120.874 72.6998C 120.874 72.6998 120.874 72.6997 120.874 72.6997C 120.874 72.6996 120.874 72.6994 120.874 72.6992C 120.874 72.6988 120.874 72.6982 120.874 72.6975C 120.874 72.6961 120.874 72.6938 120.874 72.691C 120.874 72.6854 120.874 72.6768 120.875 72.6657C 120.876 72.6436 120.877 72.6104 120.878 72.5669C 120.881 72.4804 120.884 72.3511 120.889 72.1828C 120.898 71.8473 120.911 71.352 120.924 70.7193L 118.925 70.6769C 118.911 71.3053 118.899 71.7942 118.89 72.1276C 118.885 72.2939 118.881 72.4203 118.879 72.5058C 118.878 72.5484 118.877 72.5802 118.876 72.6018C 118.876 72.6125 118.875 72.6203 118.875 72.6257C 118.875 72.6283 118.875 72.6302 118.875 72.6316C 118.875 72.6322 118.875 72.6326 118.875 72.6329C 118.875 72.6331 118.875 72.6332 118.875 72.6332C 118.875 72.6333 118.875 72.6333 118.875 72.6333C 118.875 72.6333 118.875 72.6333 119.874 72.6666ZM 120.997 64.7286C 121.002 63.5041 121.001 62.1674 120.992 60.7472L 118.992 60.7604C 119.001 62.1746 119.002 63.5007 118.997 64.7208L 120.997 64.7286ZM 120.904 54.7776C 120.874 53.4824 120.836 52.1478 120.788 50.7923L 118.789 50.8632C 118.837 52.212 118.875 53.5342 118.905 54.8238L 120.904 54.7776ZM 120.513 44.8141C 120.437 43.4898 120.35 42.1553 120.251 40.8298L 118.257 40.9787C 118.355 42.2948 118.441 43.6119 118.516 44.9282L 120.513 44.8141ZM 119.71 34.8583C 119.564 33.5101 119.401 32.1763 119.221 30.8837L 117.24 31.1592C 117.417 32.4354 117.577 33.7393 117.722 35.074L 119.71 34.8583ZM 118.209 24.9462C 117.919 23.5591 117.596 22.2285 117.244 21.0115L 115.323 21.5667C 115.663 22.7423 115.968 23.9994 116.251 25.3544L 118.209 24.9462ZM 114.878 15.257C 114.476 14.6064 114.008 13.9928 113.541 13.5184L 112.12 14.9259C 112.498 15.305 112.826 15.7377 113.175 16.3056L 114.878 15.257ZM 113.541 13.5184C 113.076 13.0494 112.586 12.585 112.094 12.1457L 110.762 13.6372C 111.232 14.0568 111.677 14.4792 112.12 14.9259L 113.541 13.5184ZM 107.349 8.55461C 106.244 7.8421 105.09 7.17131 103.939 6.55991L 103.001 8.32641C 104.118 8.91934 105.199 9.54741 106.265 10.2354L 107.349 8.55461ZM 98.582 4.07835C 97.3491 3.58123 96.1073 3.12637 94.8998 2.71966L 94.2615 4.61508C 95.4442 5.01325 96.6311 5.44789 97.8339 5.93317L 98.582 4.07835ZM 89.2612 1.0636C 87.9147 0.722318 86.6254 0.432228 85.4447 0.190843L 85.0442 2.15033C 86.2056 2.38768 87.4494 2.66745 88.7697 3.00226L 89.2612 1.0636ZM 79.6467 -0.781125C 79.031 -0.86023 78.5406 -0.914382 78.2109 -0.947993C 78.0441 -0.96498 77.9133 -0.977255 77.8272 -0.984997C 77.7833 -0.988949 77.7485 -0.99194 77.7262 -0.993819C 77.7146 -0.994797 77.7052 -0.995574 77.6993 -0.99605C 77.6962 -0.996307 77.6935 -0.996525 77.6919 -0.996651C 77.691 -0.996723 77.6901 -0.996791 77.6897 -0.996827C 77.6894 -0.996849 77.6891 -0.996872 77.689 -0.996884C 77.6889 -0.996891 77.6887 -0.996901 77.6887 -0.996904C 77.6887 -0.996908 77.6886 -0.996911 77.6886 -0.996913C 77.6885 -0.996917 77.6885 -0.99692 77.6101 0C 77.5316 0.99692 77.5316 0.996917 77.5316 0.996914C 77.5316 0.996914 77.5315 0.996911 77.5315 0.996909C 77.5315 0.99691 77.5314 0.996903 77.5314 0.996904C 77.5314 0.996901 77.5314 0.996903 77.5315 0.996907C 77.5317 0.996925 77.5319 0.996939 77.5323 0.996975C 77.5335 0.997065 77.5348 0.997173 77.537 0.997355C 77.542 0.997757 77.5487 0.998307 77.5584 0.99913C 77.5789 1.00085 77.608 1.00335 77.6482 1.00697C 77.7304 1.01436 77.8493 1.02551 78.0081 1.0417C 78.3295 1.07445 78.7937 1.12565 79.3917 1.20255L 79.6467 -0.781125ZM 76.8996 -0.703758C 76.5037 -0.302663 76.0868 0.0495354 75.5921 0.405888L 76.763 2.02728C 77.3188 1.625 77.8611 1.16614 78.3205 0.703758L 76.8996 -0.703758ZM 70.8122 2.74108C 69.6952 3.11159 68.5343 3.41017 67.2934 3.65248L 67.6774 5.61528C 68.9757 5.36086 70.2591 5.03045 71.4409 4.63968L 70.8122 2.74108ZM 61.8368 4.29192C 60.6081 4.34772 59.3919 4.34772 58.1631 4.29193L 58.0728 6.2899C 59.3467 6.34721 60.6532 6.34721 61.9271 6.28988L 61.8368 4.29192ZM 52.7065 3.65252C 51.4656 3.41022 50.3048 3.11164 49.1878 2.74113L 48.559 4.63973C 49.7408 5.03049 51.0243 5.36091 52.3226 5.61532L 52.7065 3.65252ZM 44.4079 0.405926C 43.9132 0.049567 43.4963 -0.302636 43.1004 -0.703739L 41.6795 0.703739C 42.1389 1.16614 42.6812 1.62501 43.2369 2.0273L 44.4079 0.405926Z"/>
</defs>
</svg>
