<svg width="28" height="28" viewBox="0 0 28 28" version="1.1" xmlns="http://www.w3.org/2000/svg" xmlns:xlink="http://www.w3.org/1999/xlink">
<title>ic-load_small</title>
<desc>Created using Figma</desc>
<g id="Canvas" transform="translate(-5762 -420)">
<g id="ic-load_small">
<use xlink:href="#path0_stroke" transform="translate(5764 422)" fill="#FFFFFF"/>
</g>
</g>
<defs>
<path id="path0_stroke" d="M 26 12C 26 10.8954 25.1046 10 24 10C 22.8954 10 22 10.8954 22 12L 26 12ZM 12 2C 13.1046 2 14 1.10457 14 0C 14 -1.10457 13.1046 -2 12 -2L 12 2ZM 22 12C 22 17.5228 17.5228 22 12 22L 12 26C 19.732 26 26 19.732 26 12L 22 12ZM 12 22C 6.47715 22 2 17.5228 2 12L -2 12C -2 19.732 4.26801 26 12 26L 12 22ZM 2 12C 2 6.47715 6.47715 2 12 2L 12 -2C 4.26801 -2 -2 4.26801 -2 12L 2 12Z"/>
</defs>
</svg>
