<svg width="167" height="48" viewBox="0 0 167 48" version="1.1" xmlns="http://www.w3.org/2000/svg" xmlns:xlink="http://www.w3.org/1999/xlink">
<title>logo</title>
<desc>Created using Figma</desc>
<g id="Canvas" transform="translate(4338 376)">
<g id="logo">
<g id="text">
<g id="path44">
<use xlink:href="#path0_fill" transform="matrix(1.33333 0 0 -1.33333 -4281 -338.509)" fill="#1A7DA9"/>
</g>
<g id="path48">
<use xlink:href="#path1_fill" transform="matrix(1.33333 0 0 -1.33333 -4256 -349.509)" fill="#1A7DA9"/>
</g>
<g id="path52">
<use xlink:href="#path2_fill" transform="matrix(1.33333 0 0 -1.33333 -4247.82 -348.668)" fill="#1A7DA9"/>
</g>
<g id="path56">
<use xlink:href="#path3_fill" transform="matrix(1.33333 0 0 -1.33333 -4229.65 -348.668)" fill="#1A7DA9"/>
</g>
<g id="path60">
<use xlink:href="#path4_fill" transform="matrix(1.33333 0 0 -1.33333 -4209 -348.509)" fill="#1A7DA9"/>
</g>
<g id="path64">
<use xlink:href="#path2_fill" transform="matrix(1.33333 0 0 -1.33333 -4186.87 -348.668)" fill="#1A7DA9"/>
</g>
<g id="SAMPLE DASHBOARD">
<use xlink:href="#path5_fill" transform="translate(-4256 -345.509)"/>
</g>
</g>
<g id="path32">
<use xlink:href="#path6_fill" transform="matrix(1.33333 0 0 -1.33333 -4338 -328)" fill="url(#paint7_linear)"/>
</g>
</g>
</g>
<defs>
<linearGradient id="paint7_linear" x1="0" y1="0" x2="1" y2="0" gradientUnits="userSpaceOnUse" gradientTransform="matrix(33.75 0 0 -34.0217 3.71485e-05 35.0109)">
<stop offset="0" stop-color="#94CA62"/>
<stop offset="0.996612" stop-color="#20AEB8"/>
<stop offset="1" stop-color="#20AEB8"/>
</linearGradient>
<path id="path0_fill" d="M 7.41953 21.4127C 6.72765 21.4127 6.11244 21.2722 5.57314 20.9919C 5.03287 20.7118 4.56851 20.323 4.17927 19.8274C 3.79062 19.331 3.49399 18.7387 3.2884 18.0487C 3.08282 17.3579 2.9809 16.5931 2.9809 15.7517C 2.9809 14.9322 3.08282 14.1775 3.2884 13.4877C 3.49399 12.7977 3.79062 12.2046 4.17927 11.709C 4.56851 11.2124 5.03287 10.8195 5.57314 10.5284C 6.11244 10.2373 6.72765 10.0917 7.41953 10.0917C 8.06755 10.0917 8.6878 10.2154 9.28204 10.4637C 9.87608 10.711 10.3886 11.0729 10.8209 11.5473C 11.2531 12.021 11.5986 12.6143 11.8574 13.326C 12.1169 14.0379 12.2468 14.8464 12.2468 15.7517C 12.2468 16.6361 12.1111 17.4287 11.8415 18.1295C 11.5709 18.8296 11.2152 19.4237 10.7728 19.9082C 10.3296 20.3938 9.81706 20.7657 9.23389 21.0239C 8.65072 21.283 8.04561 21.4127 7.41953 21.4127ZM 7.09514 7.50362C 5.95073 7.50362 4.93522 7.70888 4.05018 8.11862C 3.16455 8.52759 2.41869 9.09975 1.81455 9.83259C 1.20944 10.5654 0.75595 11.4388 0.454269 12.4527C 0.15084 13.4658 -3.43618e-07 14.5655 -3.43618e-07 15.7517C -3.43618e-07 16.8734 0.16773 17.9301 0.502414 18.9221C 0.836903 19.9133 1.31214 20.7866 1.92831 21.5423C 2.54352 22.2961 3.28336 22.8952 4.14724 23.3369C 5.01094 23.7787 5.98276 24 7.06311 24C 8.29429 24 9.30902 23.7895 10.1086 23.3697C 10.9067 22.9491 11.6737 22.2961 12.4085 21.4127L 12.7322 23.6769L 15 23.6769L 15 4.02218e-07L 12.0849 4.02218e-07L 12.0849 9.83259C 11.8254 9.48758 11.4899 9.16952 11.0805 8.8784C 10.6699 8.58728 10.2377 8.33919 9.78426 8.13471C 9.33096 7.92945 8.87164 7.77381 8.40728 7.66605C 7.94291 7.55828 7.50553 7.50362 7.09514 7.50362"/>
<path id="path1_fill" d="M 3 0L -9.14308e-08 0L -9.14308e-08 15.75L 3 13.0288L 3 0Z"/>
<path id="path2_fill" d="M 5.5171 0C 3.17467 0 1.33544 0.47073 3.00283e-08 1.41219L 0.361509 4.26983C 0.798784 3.87585 1.47201 3.50253 2.381 3.15322C 3.2892 2.80293 4.29128 2.62778 5.38643 2.62778C 7.53148 2.62778 8.60459 3.29491 8.60459 4.63114C 8.60459 5.83473 7.53148 6.72148 5.38643 7.29139C 4.72953 7.4443 4.11003 7.62456 3.53087 7.83297C 2.94993 8.04058 2.43059 8.31393 1.9701 8.65399C 1.51039 8.99306 1.13294 9.42542 0.837356 9.95164C 0.541772 10.4771 0.371743 11.1332 0.328055 11.9215C 0.328055 13.3013 0.821022 14.4503 1.80597 15.3703C 2.79191 16.2896 4.31332 16.7493 6.37138 16.7493C 7.83828 16.7493 9.29396 16.399 10.7394 15.6984L 10.3781 13.0057C 9.23925 13.9686 7.92526 14.4503 6.43711 14.4503C 4.357 14.4503 3.31735 13.7224 3.31735 12.2667C 3.31735 11.9139 3.37107 11.6167 3.48127 11.3741C 3.59069 11.1306 3.78709 10.9161 4.07244 10.729C 4.357 10.541 4.73977 10.3592 5.22152 10.1823C 5.70327 10.0064 6.31667 9.80897 7.06075 9.59033C 7.52046 9.45868 8.01854 9.27763 8.555 9.04777C 9.09146 8.81792 9.58954 8.51722 10.0491 8.14488C 10.5096 7.77235 10.8923 7.31264 11.1989 6.76595C 11.5057 6.21847 11.6586 5.56138 11.6586 4.79507C 11.6586 4.26983 11.5707 3.72215 11.3963 3.15322C 11.2204 2.58331 10.9033 2.06909 10.4438 1.60957C 9.98411 1.14986 9.35457 0.766313 8.555 0.460496C 7.75543 0.153696 6.74293 0 5.5171 0Z"/>
<path id="path3_fill" d="M 8.01323 0C 6.72069 0 5.58283 0.213521 4.59768 0.640759C 3.61273 1.0678 2.77479 1.65897 2.08522 2.41426C 1.39586 3.16936 0.875534 4.05611 0.525438 5.07451C 0.175146 6.09193 -3.48328e-07 7.20342 -3.48328e-07 8.408C -3.48328e-07 9.63382 0.175146 10.7555 0.525438 11.7738C 0.875534 12.7922 1.38385 13.673 2.05275 14.4179C 2.72008 15.1619 3.55212 15.736 4.54829 16.1418C 5.54426 16.5468 6.68822 16.7493 7.97997 16.7493C 10.1258 16.7493 11.7789 16.4315 12.9392 15.7966L 12.4795 13.1363C 11.122 13.7934 9.73202 14.1223 8.30881 14.1223C 6.53531 14.1223 5.2103 13.6293 4.33457 12.6444C 3.45904 11.6594 3.02156 10.2472 3.02156 8.408C 3.02156 6.56857 3.45904 5.14024 4.33457 4.12203C 5.2103 3.10363 6.53531 2.59452 8.30881 2.59452C 9.75347 2.59452 11.1544 2.92337 12.5127 3.58026L 12.9067 1.21559C 11.7021 0.405001 10.0713 0 8.01323 0Z"/>
<path id="path4_fill" d="M 13.5 0.330423L 10.8467 0.330423L 10.5146 2.11245C 9.49731 0.703756 7.99426 -7.54317e-10 6.00364 -7.54317e-10C 2.00095 -7.54317e-10 3.63946e-07 2.36477 3.63946e-07 7.0955L 3.63946e-07 16.5L 2.98542 16.5L 2.98542 7.92047C 2.98542 4.40011 4.24598 2.64042 6.7663 2.64042C 8.49117 2.64042 9.74059 3.25579 10.5146 4.4885L 10.5146 16.5L 13.5 13.5924L 13.5 0.330423Z"/>
<path id="path5_fill" d="M 4.50879 8.29053C 4.50879 8.85596 4.30371 9.29688 3.89355 9.61328C 3.4834 9.92969 2.92676 10.0879 2.22363 10.0879C 1.46191 10.0879 0.875977 9.98975 0.46582 9.79346L 0.46582 9.07275C 0.729492 9.18408 1.0166 9.27197 1.32715 9.33643C 1.6377 9.40088 1.94531 9.43311 2.25 9.43311C 2.74805 9.43311 3.12305 9.33936 3.375 9.15186C 3.62695 8.96143 3.75293 8.69775 3.75293 8.36084C 3.75293 8.13818 3.70752 7.95654 3.6167 7.81592C 3.52881 7.67236 3.37939 7.54053 3.16846 7.42041C 2.96045 7.30029 2.64258 7.16406 2.21484 7.01172C 1.61719 6.79785 1.18945 6.54443 0.931641 6.25146C 0.676758 5.9585 0.549316 5.57617 0.549316 5.10449C 0.549316 4.60938 0.735352 4.21533 1.10742 3.92236C 1.47949 3.62939 1.97168 3.48291 2.58398 3.48291C 3.22266 3.48291 3.81006 3.6001 4.34619 3.83447L 4.11328 4.48486C 3.58301 4.26221 3.06738 4.15088 2.56641 4.15088C 2.1709 4.15088 1.86182 4.23584 1.63916 4.40576C 1.4165 4.57568 1.30518 4.81152 1.30518 5.11328C 1.30518 5.33594 1.34619 5.51904 1.42822 5.6626C 1.51025 5.80322 1.64795 5.93359 1.84131 6.05371C 2.0376 6.1709 2.33643 6.30127 2.73779 6.44482C 3.41162 6.68506 3.87451 6.94287 4.12646 7.21826C 4.38135 7.49365 4.50879 7.85107 4.50879 8.29053ZM 9.41133 10L 8.61152 7.95654L 6.03633 7.95654L 5.24531 10L 4.48945 10L 7.02949 3.54883L 7.65791 3.54883L 10.1848 10L 9.41133 10ZM 8.37861 7.28418L 7.63154 5.29346C 7.53486 5.0415 7.43525 4.73242 7.33272 4.36621C 7.26826 4.64746 7.17598 4.95654 7.05586 5.29346L 6.3 7.28418L 8.37861 7.28418ZM 13.4613 10L 11.2816 4.30469L 11.2465 4.30469C 11.2875 4.75586 11.308 5.29199 11.308 5.91309L 11.308 10L 10.6181 10L 10.6181 3.5752L 11.7431 3.5752L 13.7777 8.875L 13.8129 8.875L 15.8651 3.5752L 16.9813 3.5752L 16.9813 10L 16.2343 10L 16.2343 5.86035C 16.2343 5.38574 16.2548 4.87012 16.2958 4.31348L 16.2606 4.31348L 14.0634 10L 13.4613 10ZM 22.3717 5.44727C 22.3717 6.09766 22.149 6.59863 21.7037 6.9502C 21.2613 7.29883 20.6271 7.47314 19.8009 7.47314L 19.045 7.47314L 19.045 10L 18.298 10L 18.298 3.5752L 19.9635 3.5752C 21.5689 3.5752 22.3717 4.19922 22.3717 5.44727ZM 19.045 6.83154L 19.7174 6.83154C 20.3795 6.83154 20.8585 6.72461 21.1544 6.51074C 21.4503 6.29688 21.5982 5.9541 21.5982 5.48242C 21.5982 5.05762 21.4591 4.74121 21.1808 4.5332C 20.9024 4.3252 20.4688 4.22119 19.88 4.22119L 19.045 4.22119L 19.045 6.83154ZM 23.2708 10L 23.2708 3.5752L 24.0179 3.5752L 24.0179 9.32324L 26.8523 9.32324L 26.8523 10L 23.2708 10ZM 31.0781 10L 27.4966 10L 27.4966 3.5752L 31.0781 3.5752L 31.0781 4.23877L 28.2437 4.23877L 28.2437 6.30859L 30.9067 6.30859L 30.9067 6.96777L 28.2437 6.96777L 28.2437 9.33203L 31.0781 9.33203L 31.0781 10ZM 39.0727 6.72607C 39.0727 7.78662 38.7841 8.59814 38.2069 9.16064C 37.6327 9.72021 36.8051 10 35.724 10L 33.9442 10L 33.9442 3.5752L 35.913 3.5752C 36.912 3.5752 37.6884 3.85205 38.2421 4.40576C 38.7958 4.95947 39.0727 5.73291 39.0727 6.72607ZM 38.2816 6.75244C 38.2816 5.91455 38.0707 5.2832 37.6488 4.8584C 37.2299 4.43359 36.6059 4.22119 35.7768 4.22119L 34.6913 4.22119L 34.6913 9.354L 35.601 9.354C 36.4916 9.354 37.161 9.13574 37.6093 8.69922C 38.0575 8.25977 38.2816 7.61084 38.2816 6.75244ZM 44.0982 10L 43.2984 7.95654L 40.7232 7.95654L 39.9322 10L 39.1764 10L 41.7164 3.54883L 42.3448 3.54883L 44.8717 10L 44.0982 10ZM 43.0655 7.28418L 42.3185 5.29346C 42.2218 5.0415 42.1222 4.73242 42.0196 4.36621C 41.9552 4.64746 41.8629 4.95654 41.7428 5.29346L 40.9869 7.28418L 43.0655 7.28418ZM 48.9305 8.29053C 48.9305 8.85596 48.7254 9.29688 48.3152 9.61328C 47.9051 9.92969 47.3484 10.0879 46.6453 10.0879C 45.8836 10.0879 45.2977 9.98975 44.8875 9.79346L 44.8875 9.07275C 45.1512 9.18408 45.4383 9.27197 45.7488 9.33643C 46.0594 9.40088 46.367 9.43311 46.6717 9.43311C 47.1697 9.43311 47.5447 9.33936 47.7967 9.15186C 48.0486 8.96143 48.1746 8.69775 48.1746 8.36084C 48.1746 8.13818 48.1292 7.95654 48.0384 7.81592C 47.9505 7.67236 47.8011 7.54053 47.5901 7.42041C 47.3821 7.30029 47.0643 7.16406 46.6365 7.01172C 46.0389 6.79785 45.6111 6.54443 45.3533 6.25146C 45.0984 5.9585 44.971 5.57617 44.971 5.10449C 44.971 4.60938 45.157 4.21533 45.5291 3.92236C 45.9012 3.62939 46.3934 3.48291 47.0057 3.48291C 47.6443 3.48291 48.2317 3.6001 48.7679 3.83447L 48.535 4.48486C 48.0047 4.26221 47.4891 4.15088 46.9881 4.15088C 46.5926 4.15088 46.2835 4.23584 46.0608 4.40576C 45.8382 4.57568 45.7269 4.81152 45.7269 5.11328C 45.7269 5.33594 45.7679 5.51904 45.8499 5.6626C 45.9319 5.80322 46.0696 5.93359 46.263 6.05371C 46.4593 6.1709 46.7581 6.30127 47.1595 6.44482C 47.8333 6.68506 48.2962 6.94287 48.5481 7.21826C 48.803 7.49365 48.9305 7.85107 48.9305 8.29053ZM 54.6724 10L 53.9253 10L 53.9253 6.97656L 50.5415 6.97656L 50.5415 10L 49.7944 10L 49.7944 3.5752L 50.5415 3.5752L 50.5415 6.30859L 53.9253 6.30859L 53.9253 3.5752L 54.6724 3.5752L 54.6724 10ZM 55.989 3.5752L 57.8039 3.5752C 58.6564 3.5752 59.2731 3.70264 59.654 3.95752C 60.0349 4.2124 60.2253 4.61523 60.2253 5.16602C 60.2253 5.54688 60.1184 5.86182 59.9045 6.11084C 59.6936 6.35693 59.3845 6.5166 58.9772 6.58984L 58.9772 6.63379C 59.9528 6.80078 60.4406 7.31348 60.4406 8.17188C 60.4406 8.74609 60.2458 9.19434 59.8562 9.5166C 59.4694 9.83887 58.9274 10 58.2302 10L 55.989 10L 55.989 3.5752ZM 56.736 6.32617L 57.9665 6.32617C 58.4939 6.32617 58.8732 6.24414 59.1047 6.08008C 59.3361 5.91309 59.4519 5.6333 59.4519 5.24072C 59.4519 4.88037 59.323 4.62109 59.0651 4.46289C 58.8073 4.30176 58.3972 4.22119 57.8347 4.22119L 56.736 4.22119L 56.736 6.32617ZM 56.736 6.95898L 56.736 9.36279L 58.0764 9.36279C 58.5949 9.36279 58.9846 9.26318 59.2453 9.06396C 59.509 8.86182 59.6408 8.54688 59.6408 8.11914C 59.6408 7.7207 59.5061 7.42773 59.2365 7.24023C 58.9699 7.05273 58.5627 6.95898 58.0148 6.95898L 56.736 6.95898ZM 66.9516 6.77881C 66.9516 7.80713 66.6908 8.61572 66.1693 9.20459C 65.6508 9.79346 64.9286 10.0879 64.0028 10.0879C 63.0565 10.0879 62.3256 9.79932 61.81 9.22217C 61.2973 8.64209 61.0409 7.82471 61.0409 6.77002C 61.0409 5.72412 61.2987 4.91406 61.8144 4.33984C 62.33 3.7627 63.0624 3.47412 64.0116 3.47412C 64.9345 3.47412 65.6552 3.76709 66.1737 4.35303C 66.6923 4.93896 66.9516 5.74756 66.9516 6.77881ZM 61.8319 6.77881C 61.8319 7.64893 62.0165 8.30957 62.3856 8.76074C 62.7577 9.20898 63.2968 9.43311 64.0028 9.43311C 64.7147 9.43311 65.2523 9.20898 65.6156 8.76074C 65.9789 8.3125 66.1605 7.65186 66.1605 6.77881C 66.1605 5.91455 65.9789 5.25977 65.6156 4.81445C 65.2553 4.36621 64.7206 4.14209 64.0116 4.14209C 63.2997 4.14209 62.7577 4.36768 62.3856 4.81885C 62.0165 5.26709 61.8319 5.92041 61.8319 6.77881ZM 71.9771 10L 71.1773 7.95654L 68.6021 7.95654L 67.8111 10L 67.0553 10L 69.5953 3.54883L 70.2237 3.54883L 72.7506 10L 71.9771 10ZM 70.9444 7.28418L 70.1974 5.29346C 70.1007 5.0415 70.0011 4.73242 69.8985 4.36621C 69.8341 4.64746 69.7418 4.95654 69.6217 5.29346L 68.8658 7.28418L 70.9444 7.28418ZM 73.931 7.32812L 73.931 10L 73.1839 10L 73.1839 3.5752L 74.9461 3.5752C 75.7342 3.5752 76.3157 3.72607 76.6907 4.02783C 77.0687 4.32959 77.2576 4.78369 77.2576 5.39014C 77.2576 6.23975 76.827 6.81396 75.9656 7.11279L 77.7103 10L 76.827 10L 75.2713 7.32812L 73.931 7.32812ZM 73.931 6.68652L 74.9549 6.68652C 75.4822 6.68652 75.8689 6.58252 76.115 6.37451C 76.3611 6.16357 76.4842 5.84863 76.4842 5.42969C 76.4842 5.00488 76.3582 4.69873 76.1063 4.51123C 75.8572 4.32373 75.4559 4.22998 74.9022 4.22998L 73.931 4.22998L 73.931 6.68652ZM 83.4258 6.72607C 83.4258 7.78662 83.1372 8.59814 82.5601 9.16064C 81.9858 9.72021 81.1582 10 80.0771 10L 78.2974 10L 78.2974 3.5752L 80.2661 3.5752C 81.2651 3.5752 82.0415 3.85205 82.5952 4.40576C 83.1489 4.95947 83.4258 5.73291 83.4258 6.72607ZM 82.6348 6.75244C 82.6348 5.91455 82.4238 5.2832 82.002 4.8584C 81.583 4.43359 80.959 4.22119 80.1299 4.22119L 79.0444 4.22119L 79.0444 9.354L 79.9541 9.354C 80.8447 9.354 81.5142 9.13574 81.9624 8.69922C 82.4106 8.25977 82.6348 7.61084 82.6348 6.75244Z"/>
<path id="path6_fill" d="M 9.66976 36C 4.35126 36 -3.93805e-07 31.6135 -3.93805e-07 26.2524L -3.93805e-07 11.7255C -3.93805e-07 6.36437 4.35126 1.97788 9.66976 1.97788L 24.0804 1.97788C 25.1333 1.97788 26.405 1.92624 26.806 1.89352C 27.4123 1.9014 30.584 1.61384 31.8122 0.101947C 32.4017 -0.623551 33.4872 2.71658 32.729 4.00695L 31.7424 5.85804C 32.983 7.49726 33.75 9.51667 33.75 11.7255L 33.75 26.2524C 33.75 31.6135 29.3987 36 24.0804 36L 9.66976 36ZM 4.51765 14.0198L 4.51765 24.0118C 4.51765 28.1155 7.84831 31.4728 11.9192 31.4728L 21.831 31.4728C 25.9017 31.4728 29.2326 28.1155 29.2326 24.0118L 29.2326 14.4633C 29.2316 14.321 29.2267 14.0851 29.2087 13.7867C 29.1991 13.4788 29.1639 13.1779 29.1176 12.8801C 29.0945 12.7084 29.0122 11.9756 28.7543 11.4559C 27.608 11.8698 24.8492 10.9746 25.2987 10.7422C 26.9821 9.87202 28.9246 5.47726 28.9246 5.47726C 27.5001 6.56501 23.4867 6.55909 21.831 6.55909L 11.9192 6.55909C 7.84831 6.55909 4.51765 9.91617 4.51765 14.0198"/>
</defs>
</svg>
