<svg width="11" height="17" viewBox="0 0 11 17" version="1.1" xmlns="http://www.w3.org/2000/svg" xmlns:xlink="http://www.w3.org/1999/xlink">
<title>ic_pencil</title>
<desc>Created using Figma</desc>
<g id="Canvas" transform="translate(-494 105)">
<g id="ic_pencil">
<g id="ic_pencil">
<use xlink:href="#path0_fill" transform="matrix(0.866025 0.5 -0.5 0.866025 502.547 -104.586)" fill="#F2994A"/>
</g>
</g>
</g>
<defs>
<path id="path0_fill" fill-rule="evenodd" d="M 1 0C 0.447723 0 0 0.447708 0 1L 0 13L 3 13L 3 1C 3 0.447708 2.55228 0 2 0L 1 0ZM 2.9472 15.1056L 1.9472 17.1056C 1.76294 17.4741 1.23706 17.4741 1.0528 17.1056L 0.0527954 15.1056C 0.0180664 15.0361 0 14.9596 0 14.882L 0 14L 3 14L 3 14.882C 3 14.9596 2.98193 15.0361 2.9472 15.1056Z"/>
</defs>
</svg>
